<svg xmlns="http://www.w3.org/2000/svg" width="512" height="512" viewBox="0 0 512 512"><rect width="512" height="512" fill="#0d6efd" rx="100"/><path d="M256 120c-74.439 0-135 60.561-135 135s60.561 135 135 135 135-60.561 135-135-60.561-135-135-135zm45 190.5h-90c-8.284 0-15-6.716-15-15s6.716-15 15-15h90c8.284 0 15 6.716 15 15s-6.716 15-15 15zm0-60h-90c-8.284 0-15-6.716-15-15s6.716-15 15-15h90c8.284 0 15 6.716 15 15s-6.716 15-15 15zm-45-90c-16.569 0-30-13.431-30-30s13.431-30 30-30 30 13.431 30 30-13.431 30-30 30z" fill="white"/></svg>
