<?xml version="1.0" encoding="UTF-8"?>
<!DOCTYPE svg PUBLIC "-//W3C//DTD SVG 1.1//EN" "http://www.w3.org/Graphics/SVG/1.1/DTD/svg11.dtd">
<!-- Creator: CorelDRAW -->
<svg xmlns="http://www.w3.org/2000/svg" xml:space="preserve" width="512px" height="512px" version="1.1" style="shape-rendering:geometricPrecision; text-rendering:geometricPrecision; image-rendering:optimizeQuality; fill-rule:evenodd; clip-rule:evenodd"
viewBox="0 0 512 512"
 xmlns:xlink="http://www.w3.org/1999/xlink"
 xmlns:xodm="http://www.corel.com/coreldraw/odm/2003">
 <defs>
  <style type="text/css">
   <![CDATA[
    .fil0 {fill:#FD7503}
    .fil1 {fill:white}
   ]]>
  </style>
 </defs>
 <g id="Camada_x0020_1">
  <metadata id="CorelCorpID_0Corel-Layer"/>
  <rect class="fil0" width="512" height="512"/>
  <circle class="fil1" cx="256" cy="256" r="222"/>
  <path class="fil0" d="M172.92 332.05c-2.35,0.01 -2.8,-0.85 -4.17,-2.1l-9.56 -9.68c-3.72,-4.39 -7.26,-9.25 -10.25,-15.4 -7.28,-14.98 -10.31,-23.14 -9.37,-41.7 0.71,-13.93 8.53,-27.82 14.9,-36.48 3.7,-5.03 7.78,-9.65 12.23,-13.41 12.43,-10.54 16.79,-12.41 31.56,-19.41 19.1,-9.06 44.14,-12.15 65.8,-10.89 23.89,1.39 39.68,7.23 59.48,17.2 2.55,1.28 14.37,8.91 14.99,9.87 -2.06,0.07 -6.1,-2.22 -8.07,-3.05 -24.36,-10.3 -36.23,-14.86 -65.44,-14.45 -28.44,0.4 -51.09,8.7 -70.66,20.49 -10.3,6.21 -16.95,13.24 -24.06,21.47 -6.54,7.55 -12.28,17.87 -15.53,29.95 -4.06,15.03 -3.07,24.64 1.5,38.86 2.17,6.75 7.83,16.81 12.16,22.17 1.01,1.25 1.76,2.05 2.64,3.1 0.71,0.85 1.68,2.05 1.85,3.46zm-172.92 -105.05l0 93.69 0 7.66 0 90.5 0 93.15 43 0 426 0 43 0 0 -93.15 0 -325.85 0 -93 -43 0 -426 0 -43 0 0 93 0 129.9 0 4.1zm37.01 93.69l0 -67.95c1.44,0.01 0.86,0.08 1.87,-0.63 0.19,-9.11 7.76,-26.2 12.14,-34.57 4.25,-8.12 13.78,-19.88 20.04,-26.8 24.07,-26.58 64.14,-45.95 104.37,-52.41 32.68,-5.24 52.16,-6.54 85.41,-0.54 16.88,3.05 21.87,4.13 36.89,9.98 7.98,3.1 9.14,3.77 16.1,7.3 7.2,3.66 6.07,6.28 16.45,0.55l21.65 -9.78c3.5,-1.53 7.03,-3.35 10.63,-5.07 3,-1.43 8.71,-3.32 10.44,-5.2 -1.08,-3.42 -11.95,-9.04 -15.56,-10.98 -18.23,-9.8 -38.6,-15.91 -59.3,-20.86 -20.38,-4.88 -52.48,-4.7 -74.34,-1.98 -4.08,0.51 -7.77,1.15 -11.63,1.71 -1.61,0.23 -10.57,1.72 -12.2,0.68 0.92,-1.86 20.1,-6.06 22.4,-6.36 3.45,-0.43 8.86,-1.67 11.91,-2.53 1.94,-0.55 4.09,-0.74 6.09,-1.41 1.45,-0.49 2.65,-0.67 3.6,-0.84l63.95 0c0.4,0.35 1.06,0.41 1.88,0.63l9.78 2.8c4.52,1.28 9.33,1.62 14.01,2.67 14.97,3.37 23.91,7.06 36.81,13.49 1.79,0.89 3.54,1.65 5.53,2.79 5.15,2.96 10.83,6.28 15.48,9.55 9.33,6.57 15.35,7.25 0.61,13.25 -8.5,3.47 -16.91,7.85 -25.36,11.49l-25.31 11.56c-3.38,1.56 -6.26,3.26 -9.94,4.82 -3.38,1.44 -7.08,3.16 -10.05,4.66 -3.15,1.57 -6.48,4.5 -10.69,3.21 -2.01,-0.62 -3.37,-1.49 -5.11,-2.24 -1.95,-0.84 -3.5,-1.23 -5.5,-1.9 -7.37,-2.45 -14.37,-5.03 -22.33,-7.17 -39.32,-10.61 -82.32,-10.02 -120,5.45 -9.86,4.05 -16.72,7.18 -25.96,12.2 -10.28,5.59 -24.09,16.67 -32.46,24.62 -3.67,3.48 -5.93,6.35 -9.15,10.11 -6.07,7.07 -10.79,14.65 -15.51,22.64 -10.47,17.71 -16.04,40.99 -12.49,62.01 3.97,23.51 10.28,38.08 22.19,54.11 6.95,9.34 9.02,12.37 17.75,20.41 20.8,19.14 46.39,31.31 75.87,38.56 13.94,3.43 28.62,5.22 43.55,6.13l-46.2 0c-2.29,-1.38 -7.92,-2.83 -9.47,-3.26 -21.41,-5.95 -33.29,-8.67 -53.39,-19.72 -4.97,-2.74 -13.74,-8.01 -18.08,-11.43 -6.26,-4.95 -10.04,-7.34 -16.14,-13.03 -8.94,-8.34 -9.72,-9.72 -17.11,-19.13 -4.18,-5.31 -5.36,-7.01 -9.01,-13.09 -1.96,-3.27 -5.88,-13.61 -9.12,-17.24l0 -1.26 -1.79 0 -4.2 0zm431.99 -71.88l0 56.73c-1.4,3.83 -2.77,7.33 -3.62,9.22 -5.9,13.09 -17.94,27.29 -28.34,36.11 -4.08,3.47 -8.21,6.68 -11.56,9.92 -4.9,4.72 -16.79,11.9 -23.39,15.36 -1.14,0.59 -1.63,0.93 -2.92,1.05 -0.09,-3.71 6.7,-7.13 9.47,-9.51 18.89,-16.22 33.19,-30.12 42.24,-55.23 3.94,-10.91 5.96,-20.92 6,-33.89 0.01,-2.73 -0.03,-12.92 -1.08,-14.7 -4,-0.86 -33.37,11.68 -40.38,14.08 -2.28,0.79 -6.14,1.81 -7.55,3.35 -2.16,2.37 -0.24,5.99 -0.37,9.15 -0.13,2.91 -0.85,7.18 -1.3,10.02 -3.47,22.24 -15.3,41.77 -30.93,56.93 -1.95,1.89 -3.49,3.56 -5.52,5.39 -2.16,1.95 -3.67,3.28 -5.78,5.11 -12.04,10.39 -26.02,18.54 -40.47,25.23 -23.91,11.08 -50.16,15.33 -78.68,15.3 -31.68,-0.04 -60.04,-6.68 -86.79,-19.95 -12.38,-6.15 -22.07,-12.26 -32.7,-20.87 -10.36,-8.4 -18.13,-17.25 -25.59,-28.28 -9.09,-13.44 -16.53,-34.96 -16.56,-55.31 -0.02,-15.81 3.54,-30.32 9.72,-41.95 5.81,-10.94 10.06,-17.21 18.49,-26.39 0.57,-0.63 0.92,-1.18 1.5,-1.68 0.79,-0.68 1.16,-1.01 2.31,-1.08 -0.29,2.88 -1.68,4.65 -3.01,6.78 -1.22,1.97 -2.63,3.93 -3.88,6.06 -8.97,15.24 -15.37,28.65 -15.42,47.68 -0.06,20.9 8.15,40.01 18.54,54.2 0.66,0.91 0.91,1.52 1.48,2.34 6.05,8.7 18.38,20.16 26.96,25.98 16.46,11.19 24.78,15.87 43.04,21.72 22.57,7.23 36.48,8.47 60.31,8.4 22.46,-0.06 41,-3.42 61.64,-9.94 13.46,-4.25 28.01,-12.31 39.02,-20.64 7.02,-5.31 13.37,-10.54 18.88,-17.35 12.53,-15.48 18.79,-27.09 23.84,-47.99 2.69,-11.16 -0.44,-9.2 10.04,-13.68 5.74,-2.44 11.27,-4.58 17.23,-6.77 11.74,-4.33 23.12,-8.85 34.86,-12.98 5.69,-2.01 11.79,-4.29 17.38,-6.62 1.23,-0.52 2.17,-0.89 2.89,-1.3zm-355.94 29.12c-0.01,-12.22 2.8,-25.03 7.41,-34.25 4.76,-9.51 6.73,-11.54 12.08,-19.02 6.45,-9.01 17.89,-18.77 27.21,-24.73 4.83,-3.1 22.97,-12.86 28.26,-13.01 0,1.45 0.24,0.9 -0.46,1.68 -0.4,0.44 -0.79,0.55 -1.35,0.86l-8.62 4.87c-26.53,15.17 -49.79,42.22 -49.85,75.26 -0.02,15.63 3.78,25.76 9.43,37.41 4.12,8.5 14.61,20.56 20.35,25.52 1.07,0.93 1.79,1.87 3.01,2.77 8.57,6.34 14.1,10.67 24.6,15.8 23.99,11.73 48.68,17.1 76.05,15.47 32.02,-1.91 60.16,-11.31 84.78,-30.45 2.25,-1.75 4.11,-3.56 6.18,-5.36 2.09,-1.82 4.38,-4.53 6.39,-4.6 -0.63,1.62 -0.85,1.89 -1.97,3.25 -13.11,16.07 -23.91,23.33 -43.56,33.39 -8.4,4.3 -20.52,7.94 -30.75,10.3 -34.51,7.95 -77.93,4.24 -109.06,-11.68 -14.16,-7.23 -22.53,-13.16 -33.74,-23.64 -15.16,-14.17 -26.37,-37.96 -26.39,-59.84z"/>
 </g>
</svg>
