<?xml version="1.0" encoding="UTF-8"?>
<!DOCTYPE svg PUBLIC "-//W3C//DTD SVG 1.1//EN" "http://www.w3.org/Graphics/SVG/1.1/DTD/svg11.dtd">
<!-- Creator: CorelDRAW -->
<svg xmlns="http://www.w3.org/2000/svg" xml:space="preserve" width="750px" height="190px" version="1.1" style="shape-rendering:geometricPrecision; text-rendering:geometricPrecision; image-rendering:optimizeQuality; fill-rule:evenodd; clip-rule:evenodd"
viewBox="0 0 750 190"
 xmlns:xlink="http://www.w3.org/1999/xlink"
 xmlns:xodm="http://www.corel.com/coreldraw/odm/2003">
 <defs>
  <style type="text/css">
   <![CDATA[
    .fil1 {fill:#010137}
    .fil2 {fill:#0A080B}
    .fil3 {fill:#261A17}
    .fil4 {fill:#362A24}
    .fil5 {fill:#453B35}
    .fil6 {fill:#F9C888}
    .fil0 {fill:#FD7503}
   ]]>
  </style>
 </defs>
 <g id="Camada_x0020_1">
  <metadata id="CorelCorpID_0Corel-Layer"/>
  <g id="_2511637004784">
   <path class="fil0" d="M52.92 94.66c-0.88,0 -1.05,-0.32 -1.57,-0.79l-3.59 -3.64c-1.4,-1.65 -2.74,-3.48 -3.86,-5.79 -2.74,-5.64 -3.88,-8.71 -3.52,-15.69 0.26,-5.24 3.21,-10.46 5.6,-13.72 1.39,-1.9 2.93,-3.63 4.6,-5.05 4.68,-3.96 6.32,-4.67 11.87,-7.3 7.19,-3.41 16.61,-4.57 24.76,-4.09 8.99,0.52 14.92,2.72 22.37,6.46 0.96,0.49 5.41,3.36 5.64,3.72 -0.77,0.02 -2.29,-0.84 -3.04,-1.15 -9.16,-3.87 -13.63,-5.59 -24.61,-5.43 -10.7,0.15 -19.22,3.27 -26.58,7.7 -3.88,2.34 -6.38,4.98 -9.05,8.08 -2.46,2.84 -4.62,6.72 -5.85,11.27 -1.52,5.65 -1.15,9.26 0.57,14.61 0.81,2.54 2.94,6.33 4.57,8.34 0.38,0.47 0.67,0.78 0.99,1.17 0.27,0.32 0.64,0.77 0.7,1.3zm-22.52 -20.36c0,-4.59 1.06,-9.41 2.79,-12.88 1.79,-3.58 2.53,-4.34 4.55,-7.16 2.42,-3.39 6.73,-7.06 10.23,-9.3 1.82,-1.16 8.64,-4.84 10.63,-4.9 0,0.55 0.09,0.35 -0.17,0.64 -0.15,0.16 -0.3,0.2 -0.51,0.32l-3.24 1.83c-9.98,5.71 -18.73,15.89 -18.75,28.32 -0.01,5.88 1.42,9.69 3.54,14.07 1.55,3.19 5.5,7.73 7.66,9.6 0.4,0.35 0.67,0.7 1.13,1.04 3.22,2.38 5.31,4.01 9.26,5.94 9.02,4.41 18.31,6.44 28.6,5.82 12.05,-0.72 22.64,-4.25 31.89,-11.45 0.85,-0.66 1.55,-1.34 2.33,-2.02 0.79,-0.68 1.65,-1.7 2.4,-1.73 -0.23,0.61 -0.32,0.71 -0.74,1.22 -4.93,6.05 -8.99,8.78 -16.38,12.57 -3.16,1.61 -7.72,2.98 -11.57,3.87 -12.98,2.99 -29.31,1.59 -41.03,-4.39 -5.32,-2.73 -8.47,-4.95 -12.69,-8.9 -5.7,-5.33 -9.92,-14.28 -9.93,-22.51zm73.14 -69.96c0.05,0.53 0.38,0.5 0.87,0.63l3.68 1.06c1.7,0.48 3.51,0.61 5.27,1 5.64,1.27 9,2.66 13.85,5.08 0.67,0.33 1.33,0.62 2.08,1.05 1.94,1.11 4.07,2.36 5.82,3.59 3.51,2.47 5.78,2.72 0.23,4.98 -3.2,1.31 -6.36,2.96 -9.54,4.32l-9.52 4.35c-1.27,0.59 -2.35,1.23 -3.74,1.82 -1.27,0.54 -2.66,1.19 -3.78,1.75 -1.18,0.59 -2.44,1.69 -4.02,1.2 -0.76,-0.23 -1.27,-0.55 -1.92,-0.84 -0.73,-0.31 -1.32,-0.46 -2.07,-0.71 -2.77,-0.92 -5.41,-1.89 -8.4,-2.7 -14.79,-3.99 -30.97,-3.77 -45.14,2.05 -3.71,1.53 -6.29,2.7 -9.77,4.59 -3.87,2.11 -9.06,6.27 -12.21,9.26 -1.38,1.31 -2.23,2.39 -3.44,3.8 -2.28,2.66 -4.06,5.52 -5.83,8.52 -3.94,6.67 -6.04,15.42 -4.7,23.33 1.49,8.84 3.86,14.32 8.35,20.35 2.61,3.52 3.39,4.66 6.67,7.68 7.83,7.2 17.45,11.78 28.54,14.51 13.1,3.22 27.91,2.59 41.67,2.58l60.19 0.01c1.49,0 7.21,0.17 8.14,-0.29 0.25,-1.02 0.19,-2.91 0.19,-4.04 0.03,-8.03 -0.26,-16.1 0.08,-24.12 0.26,-6.39 2.42,-16.23 2,-21.69 -0.04,-0.46 0.05,-1.48 -0.4,-1.65 -0.18,0.31 -0.5,2.65 -0.63,3.29 -0.41,2.04 -2.34,7.33 -3.12,9.06 -2.22,4.92 -6.75,10.26 -10.66,13.58 -1.54,1.3 -3.09,2.51 -4.35,3.73 -1.84,1.78 -6.32,4.48 -8.8,5.78 -0.43,0.22 -0.61,0.35 -1.1,0.39 -0.03,-1.39 2.52,-2.68 3.56,-3.57 7.11,-6.11 12.49,-11.33 15.89,-20.78 1.48,-4.1 2.24,-7.87 2.26,-12.75 0.01,-1.02 -0.01,-4.86 -0.41,-5.53 -1.5,-0.32 -12.55,4.4 -15.19,5.3 -0.85,0.3 -2.31,0.68 -2.84,1.26 -0.81,0.89 -0.09,2.25 -0.14,3.44 -0.04,1.1 -0.32,2.7 -0.48,3.77 -1.31,8.37 -5.76,15.71 -11.64,21.42 -0.73,0.71 -1.31,1.34 -2.07,2.02 -0.82,0.74 -1.39,1.24 -2.18,1.93 -4.53,3.9 -9.79,6.97 -15.22,9.49 -9,4.17 -18.87,5.76 -29.6,5.75 -11.92,-0.01 -22.59,-2.51 -32.65,-7.5 -4.66,-2.31 -8.3,-4.61 -12.3,-7.85 -3.9,-3.16 -6.82,-6.49 -9.63,-10.64 -3.41,-5.06 -6.21,-13.15 -6.22,-20.81 -0.01,-5.95 1.32,-11.4 3.65,-15.78 2.18,-4.11 3.78,-6.47 6.96,-9.92 0.21,-0.24 0.34,-0.45 0.56,-0.64 0.3,-0.25 0.44,-0.38 0.87,-0.4 -0.11,1.08 -0.63,1.75 -1.13,2.55 -0.46,0.74 -0.99,1.48 -1.46,2.28 -3.38,5.73 -5.78,10.78 -5.8,17.93 -0.02,7.86 3.06,15.05 6.97,20.39 0.25,0.34 0.34,0.57 0.56,0.88 2.27,3.28 6.91,7.58 10.14,9.78 6.19,4.2 9.32,5.96 16.19,8.16 8.49,2.73 13.72,3.19 22.69,3.17 8.45,-0.03 15.42,-1.29 23.19,-3.74 5.06,-1.6 10.53,-4.63 14.67,-7.77 2.64,-2 5.03,-3.96 7.11,-6.52 4.71,-5.83 7.06,-10.19 8.96,-18.06 1.02,-4.2 -0.16,-3.46 3.78,-5.14 2.16,-0.92 4.24,-1.72 6.48,-2.55 4.42,-1.63 8.7,-3.33 13.11,-4.88 2.15,-0.76 4.44,-1.61 6.54,-2.49 1.54,-0.64 1.89,-0.69 1.85,-2.68 -0.23,-12.06 -0.13,-24.13 -0.11,-36.19l0.01 -17.85c0,-3.36 0.68,-2.61 -5.02,-2.64l-35.1 0c-1,-0.01 -20.25,-0.63 -21.3,-0.14z"/>
   <path class="fil1" d="M529.72 185.66c0.03,-1.5 -0.12,-3.37 -0.13,-4.97 0,-1.73 0,-3.46 0,-5.19 0,-1.69 0.01,-3.38 0.04,-5.07 0.02,-1.18 0.26,-4.01 0.08,-5.03l-16.49 -0.04c-38.31,-0.1 -76.75,-0.03 -115.06,-0.03 -43.83,0 -87.65,-0.01 -131.48,0l-230.13 -0.02c-5.47,0 -10.94,0 -16.41,0 -2,0 -15.58,-0.11 -16.34,0.1 -0.17,1.81 -0.16,19.77 0.08,20.19 0.25,0.21 -0.04,0.1 0.46,0.17l7.72 -0.01c161.66,0.1 323.34,-0.05 485,-0.05l24.61 -0.01c2.62,-0.02 5.46,0.12 8.05,-0.04z"/>
   <path class="fil0" d="M529.71 165.4c0.18,1.02 -0.06,3.85 -0.08,5.03 -0.03,1.69 -0.04,3.38 -0.04,5.07 0,1.73 0,3.46 0,5.19 0.01,1.6 0.16,3.47 0.13,4.97 8.95,0.36 18.37,0.09 27.41,0.11 9.16,0.02 18.33,-0.01 27.5,0 45.79,0.04 91.72,0.11 137.5,0.01 2.14,-0.01 25.82,0.17 27.26,-0.1 0.34,-0.6 0.23,-1.68 0.24,-2.46 0.02,-0.85 0.04,-1.69 0.05,-2.53 0.04,-4.16 0.48,-12.03 0.26,-15.25 -1.35,-0.25 -11.45,-0.22 -13.7,-0.23l-151.49 0c-9.21,-0.01 -18.41,0.01 -27.62,0 -3.17,0 -24.72,-0.12 -27.42,0.19z"/>
   <path class="fil1" d="M551.48 100.57c1.1,0.15 13.62,0.16 14.83,0.04l-0.42 -10.26c-0.42,-9.31 -0.42,-19.2 -1.02,-28.38 -0.05,-0.79 -0.24,-1.75 -0.23,-2.49 1.36,0.01 2.28,3.37 3.06,5.21l7.64 17.58c1.7,3.85 3.43,7.74 5.15,11.61 0.85,1.92 1.6,4.07 2.5,5.94 0.31,0.64 0.41,0.82 1.27,0.85l6.4 -0.03c9.76,-0.01 8.09,0.8 9.65,-2.94l3.84 -8.82c0.92,-1.94 1.61,-4.02 2.5,-5.95 0.86,-1.89 1.72,-3.92 2.51,-5.8 0.43,-1.01 0.9,-1.9 1.32,-2.91 0.43,-1.04 0.84,-1.99 1.25,-2.97 0.8,-1.96 1.62,-4.04 2.48,-5.97 0.75,-1.7 1.44,-4.96 2.91,-5.58 0.06,1.17 -0.45,7.84 -0.5,10.02 -0.09,3.46 -0.09,6.91 -0.18,10.37 -0.09,3.41 -0.22,6.84 -0.29,10.26 -0.03,1.68 -0.09,3.37 -0.13,5.06 -0.02,1.03 -0.29,4.42 -0.12,5.15 0.98,0.18 13.03,0.17 14.33,0.03 0.12,-0.75 0.01,-25.29 0.01,-26.77 0,-2.75 0.14,-26.11 -0.08,-26.71l-9.83 -0.01c-3.34,0 -6.68,-0.04 -10.01,-0.03 -2.06,0 -2,0.52 -2.65,2.27 -0.46,1.26 -0.92,2.43 -1.48,3.59 -1.08,2.26 -1.96,4.73 -2.99,7.01 -1.83,4.08 -4.52,9.93 -6.07,13.95 -1.1,2.88 -3.18,7.22 -4.57,10.4 -0.48,1.1 -0.96,2.84 -1.78,3.31 -0.97,-0.41 -1.25,-2.24 -1.63,-3.33l-4.51 -10.46c-2.11,-4.66 -4.07,-9.26 -6.05,-13.97 -0.96,-2.29 -2.09,-4.55 -3.06,-6.83 -0.83,-1.96 -1.22,-3.34 -2.23,-5.26 -0.38,-0.72 -0.74,-0.7 -1.82,-0.68l-20 -0.01c-0.2,1.23 -0.08,11.32 -0.07,13.37l0.03 26.78c0.01,1.64 -0.11,12.8 0.04,13.36z"/>
   <path class="fil0" d="M1.42 57.3c-0.01,2.35 -0.48,4.36 0.01,6.61 0.08,0.36 0.08,0.66 0.26,0.91 0.68,0.01 0.41,0.05 0.81,-0.23 0.07,-3.43 2.92,-9.86 4.57,-13.01 1.6,-3.05 5.18,-7.48 7.54,-10.08 9.05,-9.99 24.12,-17.28 39.26,-19.71 12.29,-1.97 19.62,-2.46 32.13,-0.2 6.34,1.14 8.22,1.55 13.87,3.75 3.01,1.17 3.44,1.42 6.06,2.74 2.71,1.38 2.28,2.37 6.19,0.21l8.14 -3.68c1.32,-0.57 2.64,-1.26 4,-1.9 1.13,-0.54 3.28,-1.25 3.93,-1.96 -0.41,-1.29 -4.5,-3.4 -5.86,-4.13 -6.85,-3.69 -14.52,-5.99 -22.3,-7.85 -7.67,-1.83 -19.74,-1.77 -27.97,-0.74 -1.53,0.19 -2.92,0.43 -4.37,0.64 -0.61,0.09 -3.98,0.65 -4.59,0.26 0.35,-0.7 7.56,-2.29 8.42,-2.39 1.3,-0.17 3.34,-0.63 4.48,-0.96 0.73,-0.21 1.54,-0.27 2.29,-0.53 1.06,-0.35 1.77,-0.28 2.09,-0.59 -1.17,-0.5 -16.26,-0.07 -18.87,-0.05 -17.61,0.13 -35.51,-0.02 -53.19,0.03 -0.99,0 -4.1,-0.26 -4.63,0.25 -0.44,0.72 0.29,37.16 -0.34,40.9 -0.63,3.8 -1.78,7.67 -1.93,11.71z"/>
   <path class="fil1" d="M293.22 55.44c5.98,-0.39 11.46,0.32 15.52,3.22 2.11,1.51 2.76,2.7 4.16,5.24 3.32,6.01 2.72,16.89 -1.42,22.51 -1.5,2.03 -2.6,2.95 -5.24,4.17 -6.79,3.13 -16.93,2.75 -22.98,-1.26 -1.61,-1.07 -3.39,-3.36 -4.27,-5.13 -3.2,-6.48 -2.93,-16.94 1.45,-22.67 2.79,-3.64 6.3,-5.66 12.78,-6.08zm-1.72 -9.32c-4.66,0.3 -9.18,1.01 -13.39,2.34 -5.6,1.76 -10.38,5.23 -13.36,10.15 -3.53,5.82 -4.41,12.65 -3.64,19.58 0.73,6.6 3.04,11.8 7.57,15.95 7.51,6.88 21.45,8.09 31.78,7.4 6.24,-0.41 13.57,-1.55 18.85,-4.64 0.85,-0.5 1.57,-0.88 2.39,-1.48 3.87,-2.81 6.56,-6.89 7.95,-11.71 1.93,-6.71 2.14,-13.65 -0.31,-20.43 -0.34,-0.92 -0.61,-1.97 -1.03,-2.83 -2.1,-4.3 -5.36,-7.63 -9.77,-10.02 -7.02,-3.81 -17.92,-4.9 -27.04,-4.31z"/>
   <path class="fil1" d="M355.48 67c-0.02,-1.14 -0.4,-5.69 -0.19,-6.33 0.43,-0.17 0.69,0.18 1.11,0.41 0.15,-0.23 -0.21,-0.19 0.26,-0.19 0.48,0.15 0.35,0.05 0.4,0.61 0.2,-0.1 0.47,-0.14 0.64,0.17 0.45,0.75 0.5,0.47 1.02,0.93 0.02,0.01 0.05,0.04 0.06,0.05 0.3,0.33 0.24,0.77 0.5,1.07 0.24,0.28 0.15,-0.11 0.35,0.38 0.11,0.24 0.06,0.53 0.06,0.79 0.19,0.42 -0.01,0.08 0.46,0.37 0.33,0.2 0.28,0.17 0.5,0.48l0.68 0.76c0.26,0.22 0.07,-0.01 0.26,0.22 0.2,0.25 0.23,0.66 0.53,0.92 1.18,1.02 0.32,0.45 1.01,1.78 0.01,0.03 0.02,0.06 0.04,0.08l2.06 2.41c0.07,0.18 0,0.11 0.11,0.35 0.18,0.36 0.14,0.13 0.42,0.55 0.15,0.22 0.23,0.31 0.25,0.72 0.51,0.04 0.53,0.19 0.85,0.46l0.3 0.19c0.02,0.4 0,0.52 0.21,0.76 0.38,0.42 0.18,-0.12 0.46,0.52 0.26,0.6 -0.13,0.23 0.38,0.56 0.22,0.15 0.1,0.01 0.28,0.19 0.02,0.02 0.04,0.05 0.06,0.07 0.02,0.02 0.03,0.05 0.05,0.07l0.1 0.14c0.19,0.25 0.38,0.71 0.65,0.94 0.38,0.31 0.42,0.48 0.61,0.95l0.78 1.27c0.02,0.05 0.15,0.3 0.16,0.32l0.56 0.8c0.15,0.4 0.1,0.21 0.43,0.49 0.44,0.37 0.14,0.15 0.41,0.57 0.29,0.43 0.72,0.63 1.02,1.03 0.28,0.38 0.21,0.62 0.62,0.81 0.52,0.25 0.72,0.8 1.23,1.44l0.83 1.34c0.1,0.1 0.35,0.22 0.46,0.38 0.29,0.45 -0.02,0.42 0.55,0.89 0.68,0.56 0.4,0.73 0.86,1.19l0.12 0.12c0.63,0.71 0.1,0.55 1.1,1.19 0.11,1.63 0.8,1.07 1.2,1.7l0.65 1.04c0.3,0.4 0,0.04 0.25,0.26 0.3,0.25 0.14,-0.01 0.28,0.38l0.28 0.5 1.05 0.02 0.02 0.93c0.65,0.4 0.6,1.37 1.56,1.48 -0.18,0.68 -0.06,0.28 0.03,0.93l0.34 -0.1 0.2 0.52c0.07,0.22 0.12,0.46 0.18,0.67 0.13,0.18 0.26,0.06 0.5,0.22 0.36,0.24 0.11,0.05 0.32,0.52l1.91 0.02c-0.27,0.6 -0.24,-0.42 -0.34,0.58 1.33,0.12 6.72,0.09 8.02,-0.08 1.36,-0.18 3.57,0.34 4.75,-0.41 0.21,-0.13 0.28,-0.32 0.32,-0.54l0.58 -1.38c0.08,-0.1 0.05,0.1 0.19,-0.3 0.17,-0.52 0.17,-1.99 0.16,-2.61 0,-1.53 -0.06,-7.35 0.07,-8.14 0.22,-1.4 0.07,-10.53 0.06,-12.37 -0.01,-1.27 -0.2,-2.66 -0.12,-4.1 0.04,-0.66 0.19,-1.07 0.09,-1.9 -0.1,-0.84 -0.03,-1.22 0,-1.97 0.04,-1.41 -0.15,-2.5 -0.03,-3.8 0.07,-0.82 0,-0.11 -0.13,-0.7 -0.16,-0.73 0.07,-1.96 0.06,-2.85l-0.09 -3.04c-0.06,-0.63 0.04,-0.41 0.16,-0.87 0.17,-0.68 0.06,-3.28 0.05,-4.17l-0.59 -0.26c0,-0.1 0.01,-0.39 0,-0.47 -0.07,-0.48 0.1,-0.18 -0.2,-0.44 -0.17,-0.15 -0.14,-0.08 -0.29,-0.09 -0.92,-0.05 0.35,0.3 -0.27,0.01l-0.39 -0.28c-0.23,-0.09 -0.16,-0.02 -0.31,-0.07 -0.44,-0.14 -0.46,-0.05 -0.23,-0.58 -0.8,0.16 -3.01,-0.01 -4.24,-0.01 -0.75,0 -1.54,-0.06 -2.27,0.03 -0.8,0.11 -1.14,-0.06 -1.96,-0.13l-0.24 0.48c0.16,0.42 0.19,0.08 0.35,0.47 -0.27,0 -0.92,-0.04 -1.13,-0.03 -0.21,0.02 -0.11,-0.01 -0.32,0.15 -0.35,0.26 0.24,0.05 -0.34,0.26 -0.84,-0.1 -0.08,-0.04 -0.41,-0.31 0,-0.01 -0.08,-0.6 -0.18,0.28 -0.04,0.47 -0.01,1.22 -0.01,1.72 -0.01,1.08 0,2.17 -0.01,3.26 0,0.62 -0.14,0.91 -0.09,1.41 0.05,0.48 0.08,0.93 0.08,1.6 -0.02,1.12 -0.07,2.14 -0.11,3.13 -0.09,2.66 0,5.42 0,8.09 -0.01,1.1 0.16,1.92 0.02,3.04 -0.07,0.53 -0.02,1.1 -0.04,1.64 -0.59,-0.26 0.44,0.28 -0.17,-0.14 -0.28,-0.19 0.1,-0.17 -0.17,-0.08 0,0.09 0,0.4 -0.02,0.47 0,0.04 -0.01,0.07 -0.02,0.1l-0.11 0.26c0.02,1.84 0.04,3.74 0.13,5.57 0.05,1 0.47,4.61 0.27,5.31 -0.41,0 -0.59,-0.14 -0.87,-0.28 -0.28,0.19 -0.56,-0.16 -0.78,-0.38l-0.83 -0.75c-0.4,-0.23 -0.46,-0.47 -0.79,-0.77 -0.81,-0.75 -0.01,-0.58 -0.93,-1.36 -0.02,-0.01 -0.05,-0.04 -0.07,-0.05 -0.36,-0.32 -1.11,-1.07 -1.3,-1.47 -0.4,-0.85 0.46,-0.49 -0.85,-1.21 -0.29,-0.16 -0.32,-0.9 -0.52,-1.16 -0.3,-0.37 0.03,-0.06 -0.46,-0.28 -0.42,-0.18 -0.23,0.04 -0.44,-0.38l-0.3 -0.76c0,-0.02 -0.02,-0.05 -0.03,-0.06 -0.07,-0.09 -0.2,0.07 -0.75,-1.12 -0.01,-0.03 -0.1,-0.24 -0.11,-0.25l-0.98 -0.96c-0.36,-0.27 -0.7,-0.64 -0.83,-1.08l-0.09 -0.28c-0.27,-0.51 -0.75,-0.49 -1.1,-0.47 -0.09,-0.73 -0.19,-0.43 -0.45,-0.76 -0.34,-0.42 -0.12,-0.95 -0.54,-1.28l-1.38 -1.5c-0.71,-1.21 -1.38,-0.16 -1.39,-2.36 -0.66,0 -0.52,-0.05 -0.91,-0.42l-0.14 -0.11c-0.34,-0.21 -0.34,-0.09 -0.57,-0.38 -0.34,-0.41 -0.09,-0.66 -0.46,-1.09 -0.47,-0.54 -0.12,-0.21 -0.46,-0.88 -0.16,-0.31 -0.53,-0.43 -0.8,-0.65 -0.16,-0.14 -0.02,0.03 -0.18,-0.18 -0.41,-0.51 0.21,-0.05 -0.96,-1.34 -0.35,-0.39 -0.33,-0.68 -0.56,-1.11 -0.18,-0.34 -0.71,-0.59 -0.92,-1.02 -0.01,-0.02 -0.02,-0.05 -0.04,-0.08 -0.08,-0.19 0.01,0.05 -0.06,-0.18 -0.05,-0.15 -0.05,-0.19 -0.1,-0.38l-0.71 -0.17c-0.91,-0.74 0.26,-1.81 -1.3,-1.93 -0.01,-0.2 -0.02,-0.35 -0.04,-0.55 -0.08,-0.86 0.2,-0.96 -0.81,-1 -0.17,-0.62 -0.35,-0.7 -0.72,-1.1l-0.22 -0.26c-0.33,-0.49 -0.07,-0.57 -0.65,-0.81 -0.21,-0.09 -0.39,-0.16 -0.55,-0.4 -0.24,-0.36 -0.03,-0.02 -0.17,-0.42 -0.2,-0.57 -0.06,-0.04 -0.47,-0.63l-0.7 -0.98c-0.24,-0.26 -0.16,-0.24 -0.17,-0.68 -0.35,-0.01 -0.5,-0.02 -0.75,-0.23 -0.02,-0.02 -0.04,-0.05 -0.05,-0.06 -0.02,-0.01 -0.04,-0.04 -0.06,-0.05l-1.03 -0.56c-0.92,-0.34 -1.59,0.04 -2.64,-0.49 -0.93,-0.46 -2.26,-0.03 -3.29,-0.21 -0.35,-0.06 -0.13,-0.01 -0.26,-0.08 0.18,-0.44 1.11,-0.23 1.68,-0.23 0.32,0 0.64,0 0.97,0 0.28,0 0.61,0.02 0.85,-0.13l-10.65 0.12c-0.13,0.23 -0.47,0.32 -0.65,0.55 -0.08,0.1 0.11,-0.03 -0.11,0.14l-1.03 0.39c0,0.29 0.06,0.68 0.08,0.71 0.37,0.58 0.36,-0.3 0.39,0.6 -0.86,0 -0.66,-0.34 -0.72,0.28 0.46,0.03 0.25,0.08 0.71,0.12 -0.14,0.33 0,0.2 -0.6,0.2 -0.17,0.72 -0.26,0.72 -0.24,1.71 0,0.39 0.04,0.59 -0.1,0.85 -0.18,0.33 -0.27,-0.34 -0.27,0.72 0,0.31 0.03,0.37 -0.05,0.58 -0.17,0.44 -0.13,-0.4 -0.13,0.35 0,0.29 0.07,0.96 0.06,1.48 -0.07,2.8 -0.24,3.17 0.09,5.95 0.29,2.53 -0.37,3.67 -0.13,5.79 0.14,1.23 -0.08,7.32 -0.08,9.25 0,4.14 0.01,8.28 0.02,12.42 0,1.4 -0.17,6.55 0.17,7.68 0.15,0.49 0.49,0.45 0.87,0.69 0.44,0.28 0.54,0.78 0.88,1.06 0.03,0.03 0.16,0.1 0.21,0.15l0.27 0.57c0.2,0.01 0.4,0 0.6,0.03 0.53,0.09 -0.01,0.04 0.43,0.12 0.24,0.04 0.55,-0.05 1,0 2.26,0.22 4.85,0.09 7.16,0.06 0.15,-0.25 0.26,-0.29 0.37,-0.66 0.14,-0.5 -0.05,-0.05 -0.01,-0.21l0.04 -0.09c0.29,-0.32 -0.36,0.26 0.19,-0.11 0.37,-0.24 0.56,-0.78 0.67,-0.95 0.01,-0.02 0.03,-0.05 0.04,-0.06 0.52,-0.75 -0.19,0.63 0.15,-0.2 0.22,-1.05 -0.02,-22.23 0.02,-27.38l0.48 -3.2z"/>
   <path class="fil1" d="M644.82 49.82l0.03 50.66 14.51 0.11 0.01 -39.31c0,-0.97 -0.21,-3.82 0.09,-4.53 0.87,-0.33 11.53,-0.16 13.34,-0.16 3.8,-0.01 7.69,0.09 11.32,0.84 3.15,0.65 6.13,1.77 6.53,5.65 0.44,4.29 -1.22,6.7 -4.34,7.85 -6.18,2.29 -17.44,0.91 -19.05,1.44 -0.47,0.16 -0.58,0.66 -0.92,1.26 -0.56,0.98 -1.11,1.77 -1.67,2.67 -0.58,0.93 -2.64,3.89 -2.88,4.61 -0.01,0.05 -0.09,0.36 -0.09,0.4 -0.02,0.5 -0.1,0.17 0.12,0.48 0.41,0.41 4.42,0.15 5.91,0.16 6.29,0.01 15.3,0.28 21.23,-0.56 3.79,-0.54 5.9,-0.9 9.04,-2.39 4.65,-2.21 9.01,-6.74 9.01,-13.86 -0.01,-4.06 -1.12,-7.58 -3.05,-10.17 -1.48,-1.98 -0.97,-1.26 -2.39,-2.57 -6.61,-6.13 -21.57,-5.29 -30.46,-5.3l-25.81 -0.01c-0.44,0.05 -0.43,0.09 -0.47,0.54 -0.05,0.65 -0.01,1.52 -0.01,2.19z"/>
   <path class="fil1" d="M254.59 100.58l0.07 -9.28c-1.46,-0.13 -12.22,0.05 -14.75,0.05 -4.78,0.01 -9.88,0.18 -14.59,-0.22 -4.98,-0.41 -7.49,-2 -9.58,-5.09 -4.62,-6.84 -2.78,-23.88 4.15,-27.65 1.62,-0.87 3.48,-1.49 5.58,-1.78 3.27,-0.45 17.4,-0.21 21.79,-0.24 2.02,-0.01 5.52,0.22 7.34,-0.05 0.1,-0.77 0.08,-8.77 -0.04,-9.21l-20.8 0.04c-3.44,0.01 -6.78,0.07 -10.17,0.33 -6.36,0.48 -11.1,1.58 -16.24,4.88 -1.63,1.04 -4.35,3.56 -5.42,5.07 -3.28,4.63 -4.45,10.64 -4.75,16.39 -0.33,6.24 1.53,12.58 4.42,16.59 1.17,1.61 3.78,3.96 5.43,5.07 7.84,5.32 16.88,5.11 26.48,5.15 1.57,0 20.02,0.15 21.08,-0.05z"/>
   <path class="fil1" d="M469.92 91.29c-1.53,-0.24 -5.57,0.01 -7.36,0.03 -6.13,0.06 -16.49,0.25 -21.94,-0.18 -4.94,-0.4 -7.49,-2.2 -9.57,-5.1 -4.11,-5.74 -2.91,-17.74 0.52,-23.8 1.95,-3.44 5.15,-5.03 9.08,-5.61 2.17,-0.32 4.83,-0.26 7.08,-0.26 3.14,-0.01 21.63,0.19 22.07,-0.12 0.02,-0.03 0.04,-0.11 0.05,-0.1 0,0.02 0.03,-0.07 0.04,-0.09 0.01,-0.03 0.03,-0.07 0.03,-0.11 0.01,-0.03 0.02,-0.06 0.03,-0.1l0.02 -8.63c-0.57,-0.26 -19.73,-0.08 -22.12,-0.07 -6.76,0.02 -13.85,0.28 -19.77,2.44 -5.17,1.9 -9.51,5.3 -12.09,10.1 -2.98,5.52 -4.05,12.22 -3.32,18.58 0.36,3.18 0.99,6.22 2.32,8.75 2.03,3.86 3.09,4.94 6.26,7.61 1.43,1.22 3.51,2.34 5.23,3.09 8.52,3.73 21.09,2.91 30.42,2.92 1.85,0 3.69,0.01 5.54,0.01 3.24,0 2.56,0.54 3.75,-1.86 0.63,-1.28 3.61,-6.45 3.73,-7.5z"/>
   <path class="fil1" d="M507.45 59.03c1.24,-2.4 1.91,0.69 2.27,1.52 0.92,2.1 2.74,5.57 3.83,7.63 1.34,2.52 2.43,4.92 3.95,7.4 0.5,0.81 1.15,1.55 1.17,2.71 -1.4,0.04 -3.01,-0.1 -4.48,-0.11 -3.02,0 -12.24,-0.25 -13.92,0.05 0.95,1.05 0.47,0.84 2.02,1.94l4.87 3.45c0.99,0.75 5.25,3.93 6.1,4.27 0.74,0.29 1.1,0.05 1.89,0.03 1.45,-0.05 7.25,-0.18 8.32,0.06l0.13 -0.26c0.32,0.11 0.8,0.23 1.08,0.36 0.21,0.19 0.19,0.75 0.58,1.08 0.02,0.02 0.05,0.04 0.07,0.05l0.66 1.02c0.11,0.21 0.08,0.15 0.18,0.43l0.77 2.01c0.49,0.55 0.29,0.1 0.53,0.55l0.54 0.5c0.05,1.08 0.41,1.02 0.51,1.7 0.1,0.71 -0.12,0.32 0.23,0.86l0.58 0.99c0.27,0.35 0.82,2.26 1.49,1.41 0,0.39 0.09,0.51 0.32,0.77 0.02,0.03 0.09,0.12 0.11,0.14 0.02,0.02 0.04,0.06 0.06,0.08 0.07,0.06 0,0.4 0.37,0.13 0.49,-0.37 -0.18,0.12 0.12,-0.38 0.32,0.15 0.22,0.04 0.34,0.07 0.45,0.11 -0.05,-0.07 0.18,0.05 0.22,0.12 -0.22,0.1 0.48,0.3 0.33,0.09 1.26,0.06 1.65,0.06l6.2 0.05c0.36,0.02 0.42,-0.05 0.65,-0.21l0.44 -0.28c0.34,-0.13 0.75,-0.2 0.97,-0.63 0.34,-0.64 -0.06,-1.34 -0.21,-1.92 -0.16,-0.59 -0.25,-1.5 -0.55,-1.99 -0.16,-0.26 -0.02,-0.08 -0.25,-0.25 -0.32,-0.24 -0.32,-0.25 -0.71,-1.08 -0.02,-0.03 -0.03,-0.06 -0.04,-0.08 -0.08,-0.16 -0.18,-0.44 -0.28,-0.58 -0.31,-0.46 -0.47,-0.18 -0.79,-0.52 -0.33,-0.35 -0.24,-1.52 -0.3,-2.06 -0.08,-0.67 -0.3,-0.17 -0.58,-0.57 -0.08,-0.11 -0.07,-0.17 -0.14,-0.33 -0.08,-0.21 -0.07,-0.19 -0.14,-0.35 -0.14,-0.3 -0.17,-0.39 -0.27,-0.69 -0.11,-0.32 -0.13,-0.35 -0.28,-0.69 -0.04,-0.1 -0.1,-0.23 -0.16,-0.33 -0.03,-0.05 -0.16,-0.22 -0.21,-0.27 -0.57,-0.63 -0.65,-1.11 -0.71,-2.08l-0.59 -0.25 0.11 -0.59c-0.46,-0.07 -0.37,-0.05 -0.6,-0.36 -0.23,-0.29 -0.22,-0.73 -0.34,-1.1 -0.27,-0.83 -0.71,-0.41 -1.31,-1.7 -0.01,-0.03 -0.03,-0.06 -0.04,-0.08 -0.01,-0.03 -0.03,-0.06 -0.04,-0.08l-0.23 -0.62c-0.32,-0.91 -0.42,-0.63 -0.61,-1.83l-0.12 -0.17c-0.41,-0.05 -0.48,-0.17 -0.73,-0.53 -0.29,-0.43 -0.28,-0.03 -0.29,-1.04 -0.22,-0.1 -0.38,-0.1 -0.59,-0.22 -0.02,-0.98 -0.05,-0.68 -0.61,-1.08 -0.01,-0.62 0.05,-0.62 -0.27,-0.97l-0.24 -0.23c-0.01,-0.02 -0.03,-0.06 -0.04,-0.08l-0.63 -0.93c-0.14,-0.23 -0.15,-0.48 -0.31,-0.78l-1.21 -3.27c-0.33,0.55 0.21,0.38 -0.46,0.44 -0.36,-0.63 -0.05,-1.25 -0.63,-1.76 -0.61,-0.54 -0.18,0.03 -1.16,-1.13 -0.36,-0.43 -0.39,-1.17 -0.72,-1.68l-0.44 -0.79c-0.22,-0.44 -0.27,-0.45 -0.51,-0.07 0,-0.47 0.06,-0.36 -0.06,-0.67 -0.23,-0.57 -0.33,-0.46 -0.76,-0.81 -0.56,-0.46 -0.59,-1.54 -1.13,-2.04 -0.29,-0.27 -0.37,-0.77 -0.53,-1.24l-0.72 -1.57c-0.12,-0.21 -0.28,-0.93 -0.54,-1.16l-0.14 -0.1c-0.02,-0.02 -0.05,-0.04 -0.07,-0.05 -0.39,-0.28 -0.72,-0.53 -0.96,-0.96l-0.36 -1.09c-0.23,-0.54 0.02,-0.06 -0.28,-0.33 -0.35,-0.31 -0.31,-0.9 -0.65,-1.28 -0.77,-0.85 -0.23,-0.93 -0.9,-1.4l-0.62 -0.35c-0.29,-0.14 -0.11,0.11 -0.23,-0.15 0.31,-0.17 0.23,0.3 0.19,-0.37 -0.01,-0.23 -0.11,-0.27 -0.2,-0.43l-0.12 -0.24c-0.24,-0.45 0.21,0.28 -0.07,-0.15 -0.16,-0.23 -0.02,-0.04 -0.14,-0.14 -0.02,-0.01 -0.08,-0.03 -0.1,-0.04 -0.26,-0.22 0,0.06 -0.08,-0.24 0,-0.01 -0.01,-0.04 -0.01,-0.05 -0.01,-0.01 -0.02,-0.05 -0.03,-0.06l-0.1 -0.21c-0.15,-0.34 0.01,-0.46 -0.35,-0.65 -0.56,-0.21 -0.01,-0.01 -0.33,0.03 -0.43,0.05 -0.88,0.16 -1.36,0.07 -0.29,-0.05 -0.45,-0.43 -0.86,-0.46 -0.14,-0.01 -0.98,0.05 -1.06,0.06 -0.59,0.07 -1.08,-0.17 -2.06,-0.07 -0.72,0.08 -0.17,0.2 -1.09,0.23l-2.24 -0.07c-0.89,-0.1 -0.28,-0.01 -0.9,0.18 -0.33,-0.29 -0.23,-0.54 -1,-0.26 -0.67,0.23 -0.23,0.17 -1.3,0.17 -0.52,0.96 -0.61,0.92 -1.52,1.11 -0.06,0.02 -0.17,0.1 -0.19,0.06 -0.02,-0.02 -0.07,0.02 -0.09,0.04 -0.16,0.16 0.01,0.52 -0.61,1.09 -0.02,0.93 -0.11,1.38 -0.84,1.8 -0.05,0.02 -0.19,0.07 -0.26,0.1 -0.01,0.21 0.01,0.39 -0.05,0.58l-0.49 0.83c-0.01,0.01 -0.03,0.09 -0.04,0.07 0,-0.01 -0.02,0.06 -0.04,0.08 -0.47,0.41 0.55,-0.3 -0.22,0.1 -0.66,0.35 -0.42,0.74 -0.67,1.42 -0.15,0.4 -0.18,0.1 -0.19,0.75l-0.83 0.16c0.03,1.33 0.18,-0.02 0.35,0.74 -0.29,0.33 -0.55,0.27 -0.81,0.62 -0.05,0.06 -0.13,0.23 -0.13,0.23 -0.21,0.27 0.09,-0.01 -0.17,0.17 -0.06,0.05 -0.16,0.08 -0.25,0.12 -0.02,0.01 -0.07,0.06 -0.09,0.04 -0.01,-0.03 -0.06,0.01 -0.09,0.03 -0.06,0.48 -0.14,0.56 -0.15,1.21 -0.24,0.11 -0.44,-0.3 -0.71,0.47l-0.29 1.18c-0.02,0.27 0.03,0.44 -0.1,0.6l-0.46 0.49c-0.86,1.28 -0.54,1.21 -1.32,1.58 0.21,0.5 -0.07,0.77 -0.49,1.07l-0.23 0.13c-0.44,0.29 -0.36,0.58 -0.59,1 -0.01,0.02 -0.03,0.04 -0.04,0.07 -0.39,0.68 -0.2,0.74 -0.84,1.45 -0.01,0.02 -0.04,0.04 -0.06,0.06l-0.53 1.17c-0.13,0.39 -0.01,0.65 -0.01,1.19 -0.76,0.01 -0.89,-0.01 -1.08,0.61 -0.27,0.87 -0.12,0.39 -0.51,1.05 -0.01,0.02 -0.02,0.06 -0.04,0.08l-0.2 0.28c-0.62,0.75 -0.52,1.41 -1.07,1.83 -0.51,0.39 -0.5,0.79 -0.71,1.35 -0.47,1.25 -1.18,0.92 -1.21,2.76 -0.49,0.26 -0.52,0.24 -0.86,0.7 -0.4,0.55 -0.97,1.18 -1.1,1.81 -0.2,1 0.07,0.41 -0.43,1.01 -0.22,0.26 -0.24,0.86 -0.51,1.18l-0.18 0.18c-0.02,0.02 -0.04,0.04 -0.06,0.06l-0.37 0.48c-0.39,0.6 -0.59,1.48 -0.59,2.29 -0.84,0.08 -0.73,0.87 -0.73,1.57 -0.81,0.03 -0.61,0.05 -0.98,0.59 -0.03,0.05 -0.2,0.27 -0.21,0.28 -0.21,0.33 -0.25,1.19 -0.37,1.58 -0.16,0.47 0.12,-0.11 -0.29,0.38 -0.24,0.29 -0.56,0.16 -0.74,0.6 -0.41,0.99 0.15,0.45 -0.72,1.22 -0.36,0.33 -0.29,0.65 -0.48,0.99 -0.42,0.75 -0.01,0.73 -0.73,1.54 -0.24,0.26 -0.27,0.25 -0.29,0.68l-0.33 -0.1c-0.27,0.58 -0.15,0.98 -0.33,1.61 -0.23,0.78 -0.3,0.41 -0.29,1.52 0.02,0.02 0.07,0.03 0.09,0.04 0.4,0.2 0.38,0.16 0.26,0.7 0.51,0 1.01,-0.03 1.44,0.26 0.69,0.45 0.51,0.1 1.35,0.09 0.75,0 0.26,0.11 0.77,0.21 0.55,0.11 0.75,-0.12 1.27,0.15 0.26,0.12 0.1,0.25 0.38,0.26 0.43,-0.12 1.86,-0.25 2.4,-0.25 0.72,-0.01 1.55,0.09 2.25,-0.06l0.17 -0.06c0.4,-0.15 0.11,0 0.46,-0.4 0.56,-0.63 -0.08,0.22 0.21,-0.35 0.05,-0.08 -0.03,-0.06 0.11,-0.18 0.37,-0.33 0.3,0.19 0.46,-0.11 0.26,-0.47 -0.11,0.18 0.05,-0.27 0.14,-0.36 0.51,-0.33 0.74,-0.76l0.08 -0.17c0.01,-0.03 0.02,-0.06 0.03,-0.09l0.78 -1.39c0.01,-0.03 0.02,-0.06 0.03,-0.09 0.07,-0.17 0.04,-0.16 0.08,-0.28 0.18,-0.52 0.38,-0.27 0.55,-0.91 0.21,-0.81 0.31,-0.8 0.3,-1.64 0.53,-0.35 0.19,0.17 0.41,-0.42 0.23,-0.59 0.13,-1.26 0.08,-1.85 0.25,-0.13 0.06,-0.03 0.28,-0.07l0.88 -0.09c0.01,-0.24 -0.01,-0.46 0.07,-0.66 0.12,-0.31 -0.01,0.02 0.14,-0.21 0.02,-0.02 0.04,-0.05 0.06,-0.07 0.01,-0.02 0.03,-0.05 0.05,-0.07 0.01,-0.01 0.19,-0.38 0.2,-0.4l0.4 -0.57c0.35,-0.46 0.14,-1.06 1.01,-1.16 0.01,-0.12 -0.02,-0.35 -0.01,-0.42l0.11 -0.46c0.23,-1.02 -0.38,-0.7 0.65,-1.5l0.01 -0.96c0.22,-0.12 0.14,-0.1 0.48,-0.13 0.01,-0.46 0.05,-0.84 0.23,-1.21 0.02,-0.03 0.04,-0.06 0.05,-0.08l0.26 -0.59c0.47,-0.73 0.51,0.12 0.81,-1.12 0.13,-0.54 0.53,-0.66 0.75,-1.17 0.36,-0.84 0.56,-0.87 0.57,-1.99 0.26,-0.15 -0.1,0.06 0.22,-0.1l0.24 -0.14c0.03,-0.76 -0.19,-0.78 0.37,-0.83 -0.02,-0.02 -0.05,-0.05 -0.07,-0.07l-0.18 -0.23c-0.06,-0.23 -0.08,-0.05 0.16,-0.25 0.88,-0.71 0.17,-0.37 0.94,-1.51 0.17,-0.23 0.56,-0.3 0.62,-0.45 0,-0.02 0.02,-0.06 0.03,-0.08 0.15,-0.43 0.37,-1.17 0.68,-1.5 0.47,-0.49 0.25,0.34 0.57,-0.64 0.11,-0.33 0.4,-0.63 0.48,-0.97l0.02 -0.83c0.01,-0.38 0.06,-0.63 0.24,-0.83 0.03,-0.04 0.13,-0.11 0.2,-0.16l0.41 -0.45c0.36,-0.67 -0.3,0.11 0.15,-0.26 0.01,-0.01 0.04,-0.02 0.05,-0.03l0.27 -0.06c0.02,-0.9 0.23,-0.9 0.58,-1.49 0.01,-0.03 0.02,-0.06 0.04,-0.08 0.59,-1.02 0.2,0.14 0.72,-1.34l0.48 -1.32c0.01,-0.03 0.03,-0.06 0.04,-0.08l0.3 -0.54c0.01,-0.02 0.03,-0.05 0.03,-0.07 0.19,-0.42 -0.13,-0.09 0.3,-0.56 0.31,-0.34 0.28,-0.84 0.64,-1.19 0.32,-0.3 0.13,0.07 0.48,-0.34l1.02 -1.76c0.12,-0.21 0.17,-0.38 0.28,-0.59l0.53 0.1z"/>
   <path class="fil0" d="M54.17 127.61c-0.3,-0.58 -3.21,-1.33 -3.91,-1.52 -8.05,-2.24 -12.52,-3.27 -20.08,-7.42 -1.87,-1.03 -5.17,-3.01 -6.8,-4.3 -2.36,-1.86 -3.78,-2.76 -6.07,-4.9 -3.37,-3.14 -3.66,-3.66 -6.44,-7.2 -1.57,-2 -2.02,-2.64 -3.39,-4.92 -0.88,-1.47 -2.81,-6.73 -4.1,-6.96 -0.4,1.06 0.18,3.74 0.23,5.02 0.16,4.75 -0.01,11.76 -0.03,16.65 -0.02,4.55 -0.08,9.32 0.03,13.87 0.03,1.28 -0.13,1.55 1.14,1.63 1.8,0.12 3.8,0.03 5.62,0.02 7.4,-0.01 14.8,0.01 22.2,0.01 3.69,-0.01 7.4,-0.02 11.09,0.03 1.3,0.02 9.29,0.63 10.29,0.15 0.18,-0.09 0.11,-0.05 0.22,-0.16z"/>
   <path class="fil1" d="M30.4 74.3c0.01,8.23 4.23,17.18 9.93,22.51 4.22,3.95 7.37,6.17 12.69,8.9 11.72,5.98 28.05,7.38 41.03,4.39 3.85,-0.89 8.41,-2.26 11.57,-3.87 7.39,-3.79 11.45,-6.52 16.38,-12.57 0.42,-0.51 0.51,-0.61 0.74,-1.22 -0.75,0.03 -1.61,1.05 -2.4,1.73 -0.78,0.68 -1.48,1.36 -2.33,2.02 -9.25,7.2 -19.84,10.73 -31.89,11.45 -10.29,0.62 -19.58,-1.41 -28.6,-5.82 -3.95,-1.93 -6.04,-3.56 -9.26,-5.94 -0.46,-0.34 -0.73,-0.69 -1.13,-1.04 -2.16,-1.87 -6.11,-6.41 -7.66,-9.6 -2.12,-4.38 -3.55,-8.19 -3.54,-14.07 0.02,-12.43 8.77,-22.61 18.75,-28.32l3.24 -1.83c0.21,-0.12 0.36,-0.16 0.51,-0.32 0.26,-0.29 0.17,-0.09 0.17,-0.64 -1.99,0.06 -8.81,3.74 -10.63,4.9 -3.5,2.24 -7.81,5.91 -10.23,9.3 -2.02,2.82 -2.76,3.58 -4.55,7.16 -1.73,3.47 -2.79,8.29 -2.79,12.88z"/>
   <path class="fil2" d="M52.92 94.66c-0.06,-0.53 -0.43,-0.98 -0.7,-1.3 -0.32,-0.39 -0.61,-0.7 -0.99,-1.17 -1.63,-2.01 -3.76,-5.8 -4.57,-8.34 -1.72,-5.35 -2.09,-8.96 -0.57,-14.61 1.23,-4.55 3.39,-8.43 5.85,-11.27 2.67,-3.1 5.17,-5.74 9.05,-8.08 7.36,-4.43 15.88,-7.55 26.58,-7.7 10.98,-0.16 15.45,1.56 24.61,5.43 0.75,0.31 2.27,1.17 3.04,1.15 -0.23,-0.36 -4.68,-3.23 -5.64,-3.72 -7.45,-3.74 -13.38,-5.94 -22.37,-6.46 -8.15,-0.48 -17.57,0.68 -24.76,4.09 -5.55,2.63 -7.19,3.34 -11.87,7.3 -1.67,1.42 -3.21,3.15 -4.6,5.05 -2.39,3.26 -5.34,8.48 -5.6,13.72 -0.36,6.98 0.78,10.05 3.52,15.69 1.12,2.31 2.46,4.14 3.86,5.79l3.59 3.64c0.52,0.47 0.69,0.79 1.57,0.79z"/>
   <path class="fil2" d="M507.45 59.03l-0.53 -0.1c-0.11,0.21 -0.16,0.38 -0.28,0.59l-1.02 1.76c-0.35,0.41 -0.16,0.04 -0.48,0.34 -0.36,0.35 -0.33,0.85 -0.64,1.19 -0.43,0.47 -0.11,0.14 -0.3,0.56 0,0.02 -0.02,0.05 -0.03,0.07l-0.3 0.54c-0.01,0.02 -0.03,0.05 -0.04,0.08l-0.48 1.32c-0.52,1.48 -0.13,0.32 -0.72,1.34 -0.02,0.02 -0.03,0.05 -0.04,0.08 -0.35,0.59 -0.56,0.59 -0.58,1.49l-0.27 0.06c-0.01,0.01 -0.04,0.02 -0.05,0.03 -0.45,0.37 0.21,-0.41 -0.15,0.26l-0.41 0.45c-0.07,0.05 -0.17,0.12 -0.2,0.16 -0.18,0.2 -0.23,0.45 -0.24,0.83l-0.02 0.83c-0.08,0.34 -0.37,0.64 -0.48,0.97 -0.32,0.98 -0.1,0.15 -0.57,0.64 -0.31,0.33 -0.53,1.07 -0.68,1.5 -0.01,0.02 -0.03,0.06 -0.03,0.08 -0.06,0.15 -0.45,0.22 -0.62,0.45 -0.77,1.14 -0.06,0.8 -0.94,1.51 -0.24,0.2 -0.22,0.02 -0.16,0.25l0.18 0.23c0.02,0.02 0.05,0.05 0.07,0.07 -0.56,0.05 -0.34,0.07 -0.37,0.83l-0.24 0.14c-0.32,0.16 0.04,-0.05 -0.22,0.1 -0.01,1.12 -0.21,1.15 -0.57,1.99 -0.22,0.51 -0.62,0.63 -0.75,1.17 -0.3,1.24 -0.34,0.39 -0.81,1.12l-0.26 0.59c-0.01,0.02 -0.03,0.05 -0.05,0.08 -0.18,0.37 -0.22,0.75 -0.23,1.21 -0.34,0.03 -0.26,0.01 -0.48,0.13l-0.01 0.96c-1.03,0.8 -0.42,0.48 -0.65,1.5l-0.11 0.46c-0.01,0.07 0.02,0.3 0.01,0.42 -0.87,0.1 -0.66,0.7 -1.01,1.16l-0.4 0.57c-0.01,0.02 -0.19,0.39 -0.2,0.4 -0.02,0.02 -0.04,0.05 -0.05,0.07 -0.02,0.02 -0.04,0.05 -0.06,0.07 -0.15,0.23 -0.02,-0.1 -0.14,0.21 -0.08,0.2 -0.06,0.42 -0.07,0.66l-0.88 0.09c-0.22,0.04 -0.03,-0.06 -0.28,0.07 0.05,0.59 0.15,1.26 -0.08,1.85 -0.22,0.59 0.12,0.07 -0.41,0.42 0.01,0.84 -0.09,0.83 -0.3,1.64 -0.17,0.64 -0.37,0.39 -0.55,0.91 -0.04,0.12 -0.01,0.11 -0.08,0.28 -0.01,0.03 -0.02,0.06 -0.03,0.09l-0.78 1.39c-0.01,0.03 -0.02,0.06 -0.03,0.09l-0.08 0.17c-0.23,0.43 -0.6,0.4 -0.74,0.76 -0.16,0.45 0.21,-0.2 -0.05,0.27 -0.16,0.3 -0.09,-0.22 -0.46,0.11 -0.14,0.12 -0.06,0.1 -0.11,0.18 -0.29,0.57 0.35,-0.28 -0.21,0.35 -0.35,0.4 -0.06,0.25 -0.46,0.4l-0.17 0.06c-0.7,0.15 -1.53,0.05 -2.25,0.06 -0.54,0 -1.97,0.13 -2.4,0.25 -0.28,-0.01 -0.12,-0.14 -0.38,-0.26 -0.52,-0.27 -0.72,-0.04 -1.27,-0.15 -0.51,-0.1 -0.02,-0.21 -0.77,-0.21 -0.84,0.01 -0.66,0.36 -1.35,-0.09 -0.43,-0.29 -0.93,-0.26 -1.44,-0.26 0.12,-0.54 0.14,-0.5 -0.26,-0.7 -0.02,-0.01 -0.07,-0.02 -0.09,-0.04 -0.01,-1.11 0.06,-0.74 0.29,-1.52 0.18,-0.63 0.06,-1.03 0.33,-1.61l0.33 0.1c0.02,-0.43 0.05,-0.42 0.29,-0.68 0.72,-0.81 0.31,-0.79 0.73,-1.54 0.19,-0.34 0.12,-0.66 0.48,-0.99 0.87,-0.77 0.31,-0.23 0.72,-1.22 0.18,-0.44 0.5,-0.31 0.74,-0.6 0.41,-0.49 0.13,0.09 0.29,-0.38 0.12,-0.39 0.16,-1.25 0.37,-1.58 0.01,-0.01 0.18,-0.23 0.21,-0.28 0.37,-0.54 0.17,-0.56 0.98,-0.59 0,-0.7 -0.11,-1.49 0.73,-1.57 0,-0.81 0.2,-1.69 0.59,-2.29l0.37 -0.48c0.02,-0.02 0.04,-0.04 0.06,-0.06l0.18 -0.18c0.27,-0.32 0.29,-0.92 0.51,-1.18 0.5,-0.6 0.23,-0.01 0.43,-1.01 0.13,-0.63 0.7,-1.26 1.1,-1.81 0.34,-0.46 0.37,-0.44 0.86,-0.7 0.03,-1.84 0.74,-1.51 1.21,-2.76 0.21,-0.56 0.2,-0.96 0.71,-1.35 0.55,-0.42 0.45,-1.08 1.07,-1.83l0.2 -0.28c0.02,-0.02 0.03,-0.06 0.04,-0.08 0.39,-0.66 0.24,-0.18 0.51,-1.05 0.19,-0.62 0.32,-0.6 1.08,-0.61 0,-0.54 -0.12,-0.8 0.01,-1.19l0.53 -1.17c0.02,-0.02 0.05,-0.04 0.06,-0.06 0.64,-0.71 0.45,-0.77 0.84,-1.45 0.01,-0.03 0.03,-0.05 0.04,-0.07 0.23,-0.42 0.15,-0.71 0.59,-1l0.23 -0.13c0.42,-0.3 0.7,-0.57 0.49,-1.07 0.78,-0.37 0.46,-0.3 1.32,-1.58l0.46 -0.49c0.13,-0.16 0.08,-0.33 0.1,-0.6l0.29 -1.18c0.27,-0.77 0.47,-0.36 0.71,-0.47 0.01,-0.65 0.09,-0.73 0.15,-1.21 0.03,-0.02 0.08,-0.06 0.09,-0.03 0.02,0.02 0.07,-0.03 0.09,-0.04 0.09,-0.04 0.19,-0.07 0.25,-0.12 0.26,-0.18 -0.04,0.1 0.17,-0.17 0,0 0.08,-0.17 0.13,-0.23 0.26,-0.35 0.52,-0.29 0.81,-0.62 -0.17,-0.76 -0.32,0.59 -0.35,-0.74l0.83 -0.16c0.01,-0.65 0.04,-0.35 0.19,-0.75 0.25,-0.68 0.01,-1.07 0.67,-1.42 0.77,-0.4 -0.25,0.31 0.22,-0.1 0.02,-0.02 0.04,-0.09 0.04,-0.08 0.01,0.02 0.03,-0.06 0.04,-0.07l0.49 -0.83c0.06,-0.19 0.04,-0.37 0.05,-0.58 0.07,-0.03 0.21,-0.08 0.26,-0.1 0.73,-0.42 0.82,-0.87 0.84,-1.8 0.62,-0.57 0.45,-0.93 0.61,-1.09 0.02,-0.02 0.07,-0.06 0.09,-0.04 0.02,0.04 0.13,-0.04 0.19,-0.06 0.91,-0.19 1,-0.15 1.52,-1.11 1.07,0 0.63,0.06 1.3,-0.17 0.77,-0.28 0.67,-0.03 1,0.26 0.62,-0.19 0.01,-0.28 0.9,-0.18l2.24 0.07c0.92,-0.03 0.37,-0.15 1.09,-0.23 0.98,-0.1 1.47,0.14 2.06,0.07 0.08,-0.01 0.92,-0.07 1.06,-0.06 0.41,0.03 0.57,0.41 0.86,0.46 0.48,0.09 0.93,-0.02 1.36,-0.07 0.32,-0.04 -0.23,-0.24 0.33,-0.03 0.36,0.19 0.2,0.31 0.35,0.65l0.1 0.21c0.01,0.01 0.02,0.05 0.03,0.06 0,0.01 0.01,0.04 0.01,0.05 0.08,0.3 -0.18,0.02 0.08,0.24 0.02,0.01 0.08,0.03 0.1,0.04 0.12,0.1 -0.02,-0.09 0.14,0.14 0.28,0.43 -0.17,-0.3 0.07,0.15l0.12 0.24c0.09,0.16 0.19,0.2 0.2,0.43 0.04,0.67 0.12,0.2 -0.19,0.37 0.12,0.26 -0.06,0.01 0.23,0.15l0.62 0.35c0.67,0.47 0.13,0.55 0.9,1.4 0.34,0.38 0.3,0.97 0.65,1.28 0.3,0.27 0.05,-0.21 0.28,0.33l0.36 1.09c0.24,0.43 0.57,0.68 0.96,0.96 0.02,0.01 0.05,0.03 0.07,0.05l0.14 0.1c0.26,0.23 0.42,0.95 0.54,1.16l0.72 1.57c0.16,0.47 0.24,0.97 0.53,1.24 0.54,0.5 0.57,1.58 1.13,2.04 0.43,0.35 0.53,0.24 0.76,0.81 0.12,0.31 0.06,0.2 0.06,0.67 0.24,-0.38 0.29,-0.37 0.51,0.07l0.44 0.79c0.33,0.51 0.36,1.25 0.72,1.68 0.98,1.16 0.55,0.59 1.16,1.13 0.58,0.51 0.27,1.13 0.63,1.76 0.67,-0.06 0.13,0.11 0.46,-0.44l1.21 3.27c0.16,0.3 0.17,0.55 0.31,0.78l0.63 0.93c0.01,0.02 0.03,0.06 0.04,0.08l0.24 0.23c0.32,0.35 0.26,0.35 0.27,0.97 0.56,0.4 0.59,0.1 0.61,1.08 0.21,0.12 0.37,0.12 0.59,0.22 0.01,1.01 0,0.61 0.29,1.04 0.25,0.36 0.32,0.48 0.73,0.53l0.12 0.17c0.19,1.2 0.29,0.92 0.61,1.83l0.23 0.62c0.01,0.02 0.03,0.05 0.04,0.08 0.01,0.02 0.03,0.05 0.04,0.08 0.6,1.29 1.04,0.87 1.31,1.7 0.12,0.37 0.11,0.81 0.34,1.1 0.23,0.31 0.14,0.29 0.6,0.36l-0.11 0.59 0.59 0.25c0.06,0.97 0.14,1.45 0.71,2.08 0.05,0.05 0.18,0.22 0.21,0.27 0.06,0.1 0.12,0.23 0.16,0.33 0.15,0.34 0.17,0.37 0.28,0.69 0.1,0.3 0.13,0.39 0.27,0.69 0.07,0.16 0.06,0.14 0.14,0.35 0.07,0.16 0.06,0.22 0.14,0.33 0.28,0.4 0.5,-0.1 0.58,0.57 0.06,0.54 -0.03,1.71 0.3,2.06 0.32,0.34 0.48,0.06 0.79,0.52 0.1,0.14 0.2,0.42 0.28,0.58 0.01,0.02 0.02,0.05 0.04,0.08 0.39,0.83 0.39,0.84 0.71,1.08 0.23,0.17 0.09,-0.01 0.25,0.25 0.3,0.49 0.39,1.4 0.55,1.99 0.15,0.58 0.55,1.28 0.21,1.92 -0.22,0.43 -0.63,0.5 -0.97,0.63l-0.44 0.28c-0.23,0.16 -0.29,0.23 -0.65,0.21l-6.2 -0.05c-0.39,0 -1.32,0.03 -1.65,-0.06 -0.7,-0.2 -0.26,-0.18 -0.48,-0.3 -0.23,-0.12 0.27,0.06 -0.18,-0.05 -0.12,-0.03 -0.02,0.08 -0.34,-0.07 -0.3,0.5 0.37,0.01 -0.12,0.38 -0.37,0.27 -0.3,-0.07 -0.37,-0.13 -0.02,-0.02 -0.04,-0.06 -0.06,-0.08 -0.02,-0.02 -0.09,-0.11 -0.11,-0.14 -0.23,-0.26 -0.32,-0.38 -0.32,-0.77 -0.67,0.85 -1.22,-1.06 -1.49,-1.41l-0.58 -0.99c-0.35,-0.54 -0.13,-0.15 -0.23,-0.86 -0.1,-0.68 -0.46,-0.62 -0.51,-1.7l-0.54 -0.5c-0.24,-0.45 -0.04,0 -0.53,-0.55l-0.77 -2.01c-0.1,-0.28 -0.07,-0.22 -0.18,-0.43l-0.66 -1.02c-0.02,-0.01 -0.05,-0.03 -0.07,-0.05 -0.39,-0.33 -0.37,-0.89 -0.58,-1.08 -0.28,-0.13 -0.76,-0.25 -1.08,-0.36l-0.13 0.26c0.74,0.77 1.01,1.6 1.6,2.7 0.55,1.04 0.96,1.91 1.5,2.96l2.88 5.93c0.31,0.78 0.23,0.9 1.18,1 0.7,0.08 1.43,0.06 2.13,0.06 2.6,0 12.18,0.19 13.36,-0.06 0.05,-0.74 -1.26,-2.81 -1.65,-3.48l-5.6 -9.96c-0.62,-1.1 -1.24,-2.17 -1.86,-3.33 -1.72,-3.21 -3.72,-6.87 -5.57,-9.98 -1.27,-2.12 -2.41,-4.57 -3.68,-6.7 -1.3,-2.19 -2.37,-4.42 -3.73,-6.64 -1.01,-1.65 -7.24,-13.33 -7.43,-13.42 -1.52,-0.16 -4.35,0.06 -6.03,0.07l-9.01 -0.05c-0.94,0.15 -1.1,0.89 -1.5,1.64 -0.38,0.7 -0.74,1.22 -1.09,1.91 -1.66,3.21 -3.73,6.67 -5.47,9.98 -1.95,3.7 -4.77,8.24 -6.63,11.94l-4.36 7.94c-0.76,1.35 -1.46,2.65 -2.26,4.02 -1.5,2.62 -2.8,5.35 -4.35,7.96 -0.76,1.28 -1.5,2.62 -2.23,3.91l-1.97 3.47c-0.05,0.12 -0.07,0.14 -0.07,0.28 -0.03,0.73 -0.16,-0.65 0.05,0.29 0.1,0.47 8.49,0.21 9.58,0.21 1.47,0.01 3.42,0.13 4.83,0.03 1.19,-0.09 1.37,-1.25 2.13,-2.76 1.06,-2.11 2.03,-4.52 3.17,-6.48 0.55,-0.96 1.12,-2.15 1.62,-3.2l4.79 -9.81c1.06,-2.14 2.25,-4.22 3.26,-6.38 1.48,-3.16 3.33,-6.55 4.83,-9.65 0.41,-0.84 1.07,-2.76 1.56,-3.35z"/>
   <path class="fil3" d="M451.86 11.79l-3.27 0.1c-0.17,0.55 -0.07,12.27 -0.09,13.92 -0.02,2.4 -0.11,3.91 -1.37,5.55 -1.26,1.64 -2.57,2.04 -4.95,2.09 -2.27,0.05 -3.77,-0.81 -4.86,-2.17 -1.23,-1.53 -1.35,-3.28 -1.43,-5.59 -0.11,-3.44 -0.03,-6.92 -0.06,-10.37 -0.01,-0.66 0.15,-3.15 0.07,-3.47l-2.99 -0.02c-0.17,0.58 -0.05,15.3 0.06,16.88 0.4,5.5 4.43,7.63 9.45,7.61 5.1,-0.02 9.07,-2.39 9.41,-7.61 0.07,-1.07 0.18,-15.37 0.03,-16.92z"/>
   <path class="fil2" d="M706.66 27.49c0.38,-0.39 0.3,-1.3 0.27,-1.92 -0.73,-0.13 -9.21,-0.01 -10.73,-0.01l-70.2 -0.02c-1.2,0 -4.36,-0.22 -5.27,-0.07 -0.09,2.87 -0.47,2.18 3.22,2.17l38.72 -0.07c4.33,0 43.44,0.27 43.99,-0.08z"/>
   <path class="fil2" d="M197.35 27.57c0.88,0.29 18.91,0 21.45,0.01 8.13,0 64.3,0.18 64.54,-0.08 0.22,-0.55 0.15,-1.32 0.1,-1.94 -0.65,-0.12 -42.42,0.05 -43.05,0.05 -7.2,0 -14.39,0 -21.59,0 -7.16,0 -14.52,-0.2 -21.54,-0.19l0.09 2.15z"/>
   <path class="fil2" d="M355.48 67l-0.48 3.2c-0.04,5.15 0.2,26.33 -0.02,27.38 -0.34,0.83 0.37,-0.55 -0.15,0.2 -0.01,0.01 -0.03,0.04 -0.04,0.06 -0.11,0.17 -0.3,0.71 -0.67,0.95 -0.55,0.37 0.1,-0.21 -0.19,0.11l-0.04 0.09c-0.04,0.16 0.15,-0.29 0.01,0.21 -0.11,0.37 -0.22,0.41 -0.37,0.66 -2.31,0.03 -4.9,0.16 -7.16,-0.06 -0.45,-0.05 -0.76,0.04 -1,0 -0.44,-0.08 0.1,-0.03 -0.43,-0.12 -0.2,-0.03 -0.4,-0.02 -0.6,-0.03l-0.27 -0.57c-0.05,-0.05 -0.18,-0.12 -0.21,-0.15 -0.34,-0.28 -0.44,-0.78 -0.88,-1.06 -0.38,-0.24 -0.72,-0.2 -0.87,-0.69 -0.34,-1.13 -0.17,-6.28 -0.17,-7.68 -0.01,-4.14 -0.02,-8.28 -0.02,-12.42 0,-1.93 0.22,-8.02 0.08,-9.25 -0.24,-2.12 0.42,-3.26 0.13,-5.79 -0.33,-2.78 -0.16,-3.15 -0.09,-5.95 0.01,-0.52 -0.06,-1.19 -0.06,-1.48 0,-0.75 -0.04,0.09 0.13,-0.35 0.08,-0.21 0.05,-0.27 0.05,-0.58 0,-1.06 0.09,-0.39 0.27,-0.72 0.14,-0.26 0.1,-0.46 0.1,-0.85 -0.02,-0.99 0.07,-0.99 0.24,-1.71 0.6,0 0.46,0.13 0.6,-0.2 -0.46,-0.04 -0.25,-0.09 -0.71,-0.12 0.06,-0.62 -0.14,-0.28 0.72,-0.28 -0.03,-0.9 -0.02,-0.02 -0.39,-0.6 -0.02,-0.03 -0.08,-0.42 -0.08,-0.71l1.03 -0.39c0.22,-0.17 0.03,-0.04 0.11,-0.14 0.18,-0.23 0.52,-0.32 0.65,-0.55l10.65 -0.12c-0.24,0.15 -0.57,0.13 -0.85,0.13 -0.33,0 -0.65,0 -0.97,0 -0.57,0 -1.5,-0.21 -1.68,0.23 0.13,0.07 -0.09,0.02 0.26,0.08 1.03,0.18 2.36,-0.25 3.29,0.21 1.05,0.53 1.72,0.15 2.64,0.49l1.03 0.56c0.02,0.01 0.04,0.04 0.06,0.05 0.01,0.01 0.03,0.04 0.05,0.06 0.25,0.21 0.4,0.22 0.75,0.23 0.01,0.44 -0.07,0.42 0.17,0.68l0.7 0.98c0.41,0.59 0.27,0.06 0.47,0.63 0.14,0.4 -0.07,0.06 0.17,0.42 0.16,0.24 0.34,0.31 0.55,0.4 0.58,0.24 0.32,0.32 0.65,0.81l0.22 0.26c0.37,0.4 0.55,0.48 0.72,1.1 1.01,0.04 0.73,0.14 0.81,1 0.02,0.2 0.03,0.35 0.04,0.55 1.56,0.12 0.39,1.19 1.3,1.93l0.71 0.17c0.05,0.19 0.05,0.23 0.1,0.38 0.07,0.23 -0.02,-0.01 0.06,0.18 0.02,0.03 0.03,0.06 0.04,0.08 0.21,0.43 0.74,0.68 0.92,1.02 0.23,0.43 0.21,0.72 0.56,1.11 1.17,1.29 0.55,0.83 0.96,1.34 0.16,0.21 0.02,0.04 0.18,0.18 0.27,0.22 0.64,0.34 0.8,0.65 0.34,0.67 -0.01,0.34 0.46,0.88 0.37,0.43 0.12,0.68 0.46,1.09 0.23,0.29 0.23,0.17 0.57,0.38l0.14 0.11c0.39,0.37 0.25,0.42 0.91,0.42 0.01,2.2 0.68,1.15 1.39,2.36l1.38 1.5c0.42,0.33 0.2,0.86 0.54,1.28 0.26,0.33 0.36,0.03 0.45,0.76 0.35,-0.02 0.83,-0.04 1.1,0.47l0.09 0.28c0.13,0.44 0.47,0.81 0.83,1.08l0.98 0.96c0.01,0.01 0.1,0.22 0.11,0.25 0.55,1.19 0.68,1.03 0.75,1.12 0.01,0.01 0.03,0.04 0.03,0.06l0.3 0.76c0.21,0.42 0.02,0.2 0.44,0.38 0.49,0.22 0.16,-0.09 0.46,0.28 0.2,0.26 0.23,1 0.52,1.16 1.31,0.72 0.45,0.36 0.85,1.21 0.19,0.4 0.94,1.15 1.3,1.47 0.02,0.01 0.05,0.04 0.07,0.05 0.92,0.78 0.12,0.61 0.93,1.36 0.33,0.3 0.39,0.54 0.79,0.77l0.83 0.75c0.22,0.22 0.5,0.57 0.78,0.38 -0.09,-0.29 -0.21,-0.35 -0.48,-0.68 -1.23,-1.51 -2.54,-3.66 -3.88,-5.4l-22.53 -30.3c-1.17,-1.67 -1.4,-1.35 -3.85,-1.32l-15.83 0.05 -0.03 53.43c0.67,0.22 13.47,0.17 15.09,0.1l-0.53 -33.65z"/>
   <path class="fil2" d="M387.99 74.17l0.11 -0.26c0.01,-0.03 0.02,-0.06 0.02,-0.1 0.02,-0.07 0.02,-0.38 0.02,-0.47 0.27,-0.09 -0.11,-0.11 0.17,0.08 0.61,0.42 -0.42,-0.12 0.17,0.14 0.02,-0.54 -0.03,-1.11 0.04,-1.64 0.14,-1.12 -0.03,-1.94 -0.02,-3.04 0,-2.67 -0.09,-5.43 0,-8.09 0.04,-0.99 0.09,-2.01 0.11,-3.13 0,-0.67 -0.03,-1.12 -0.08,-1.6 -0.05,-0.5 0.09,-0.79 0.09,-1.41 0.01,-1.09 0,-2.18 0.01,-3.26 0,-0.5 -0.03,-1.25 0.01,-1.72 0.1,-0.88 0.18,-0.29 0.18,-0.28 0.33,0.27 -0.43,0.21 0.41,0.31 0.58,-0.21 -0.01,0 0.34,-0.26 0.21,-0.16 0.11,-0.13 0.32,-0.15 0.21,-0.01 0.86,0.03 1.13,0.03 -0.16,-0.39 -0.19,-0.05 -0.35,-0.47l0.24 -0.48c0.82,0.07 1.16,0.24 1.96,0.13 0.73,-0.09 1.52,-0.03 2.27,-0.03 1.23,0 3.44,0.17 4.24,0.01 -0.23,0.53 -0.21,0.44 0.23,0.58 0.15,0.05 0.08,-0.02 0.31,0.07l0.39 0.28c0.62,0.29 -0.65,-0.06 0.27,-0.01 0.15,0.01 0.12,-0.06 0.29,0.09 0.3,0.26 0.13,-0.04 0.2,0.44 0.01,0.08 0,0.37 0,0.47l0.59 0.26c0.01,0.89 0.12,3.49 -0.05,4.17 -0.12,0.46 -0.22,0.24 -0.16,0.87l0.09 3.04c0.01,0.89 -0.22,2.12 -0.06,2.85 0.13,0.59 0.2,-0.12 0.13,0.7 -0.12,1.3 0.07,2.39 0.03,3.8 -0.03,0.75 -0.1,1.13 0,1.97 0.1,0.83 -0.05,1.24 -0.09,1.9 -0.08,1.44 0.11,2.83 0.12,4.1 0.01,1.84 0.16,10.97 -0.06,12.37 -0.13,0.79 -0.07,6.61 -0.07,8.14 0.01,0.62 0.01,2.09 -0.16,2.61 -0.14,0.4 -0.11,0.2 -0.19,0.3l-0.58 1.38c-0.04,0.22 -0.11,0.41 -0.32,0.54 -1.18,0.75 -3.39,0.23 -4.75,0.41 -1.3,0.17 -6.69,0.2 -8.02,0.08 0.1,-1 0.07,0.02 0.34,-0.58l-1.91 -0.02c-0.21,-0.47 0.04,-0.28 -0.32,-0.52 -0.24,-0.16 -0.37,-0.04 -0.5,-0.22 -0.06,-0.21 -0.11,-0.45 -0.18,-0.67l-0.2 -0.52 -0.34 0.1c-0.09,-0.65 -0.21,-0.25 -0.03,-0.93 -0.96,-0.11 -0.91,-1.08 -1.56,-1.48l-0.02 -0.93 -1.05 -0.02 -0.28 -0.5c-0.14,-0.39 0.02,-0.13 -0.28,-0.38 -0.25,-0.22 0.05,0.14 -0.25,-0.26l-0.65 -1.04c-0.4,-0.63 -1.09,-0.07 -1.2,-1.7 -1,-0.64 -0.47,-0.48 -1.1,-1.19l-0.12 -0.12c-0.46,-0.46 -0.18,-0.63 -0.86,-1.19 -0.57,-0.47 -0.26,-0.44 -0.55,-0.89 -0.11,-0.16 -0.36,-0.28 -0.46,-0.38l-0.83 -1.34c-0.51,-0.64 -0.71,-1.19 -1.23,-1.44 -0.41,-0.19 -0.34,-0.43 -0.62,-0.81 -0.3,-0.4 -0.73,-0.6 -1.02,-1.03 -0.27,-0.42 0.03,-0.2 -0.41,-0.57 -0.33,-0.28 -0.28,-0.09 -0.43,-0.49l-0.56 -0.8c-0.01,-0.02 -0.14,-0.27 -0.16,-0.32l-0.78 -1.27c-0.19,-0.47 -0.23,-0.64 -0.61,-0.95 -0.27,-0.23 -0.46,-0.69 -0.65,-0.94l-0.1 -0.14c-0.02,-0.02 -0.03,-0.05 -0.05,-0.07 -0.02,-0.02 -0.04,-0.05 -0.06,-0.07 -0.18,-0.18 -0.06,-0.04 -0.28,-0.19 -0.51,-0.33 -0.12,0.04 -0.38,-0.56 -0.28,-0.64 -0.08,-0.1 -0.46,-0.52 -0.21,-0.24 -0.19,-0.36 -0.21,-0.76l-0.3 -0.19c-0.32,-0.27 -0.34,-0.42 -0.85,-0.46 -0.02,-0.41 -0.1,-0.5 -0.25,-0.72 -0.28,-0.42 -0.24,-0.19 -0.42,-0.55 -0.11,-0.24 -0.04,-0.17 -0.11,-0.35l-2.06 -2.41c-0.02,-0.02 -0.03,-0.05 -0.04,-0.08 -0.69,-1.33 0.17,-0.76 -1.01,-1.78 -0.3,-0.26 -0.33,-0.67 -0.53,-0.92 -0.19,-0.23 0,0 -0.26,-0.22l-0.68 -0.76c-0.22,-0.31 -0.17,-0.28 -0.5,-0.48 -0.47,-0.29 -0.27,0.05 -0.46,-0.37 0,-0.26 0.05,-0.55 -0.06,-0.79 -0.2,-0.49 -0.11,-0.1 -0.35,-0.38 -0.26,-0.3 -0.2,-0.74 -0.5,-1.07 -0.01,-0.01 -0.04,-0.04 -0.06,-0.05 -0.52,-0.46 -0.57,-0.18 -1.02,-0.93 -0.17,-0.31 -0.44,-0.27 -0.64,-0.17 -0.05,-0.56 0.08,-0.46 -0.4,-0.61 -0.47,0 -0.11,-0.04 -0.26,0.19l2.09 3.19c2.17,3.08 4.57,6.18 6.84,9.2 0.77,1.02 1.45,1.97 2.24,3.07 2.16,2.97 4.88,6.32 6.93,9.23 1.49,2.12 3.03,3.94 4.52,6.1l5.72 7.66c0.39,0.48 0.69,1 1.59,1.09l16.22 0.05c-0.26,-8.84 -0.02,-17.98 -0.03,-26.85l0.04 -20.02c0.01,-2.02 0.19,-4.76 0.06,-6.64l-15.05 -0.06 0.42 27.07z"/>
   <path class="fil2" d="M326.05 33.45l-0.38 0.09c0.47,0.08 0.4,0.17 0.66,0.27 0.51,0.18 1.91,0.41 2.33,0.29 0.41,-0.13 1.26,-0.23 1.8,-0.06 0.55,0.16 0.02,0.19 0.65,0.31 0.21,0.04 0.72,0 0.98,0.01 -0.11,0.67 0.21,0.3 -0.66,0.72 -0.24,0.11 0.02,0.05 -0.44,0.16 -0.31,0.08 -0.59,0.08 -0.98,0.11 -0.7,0.06 -0.34,0.11 -0.86,0.2 -1.34,0.24 -3.01,0 -4.2,-0.12 0.16,-0.1 0.27,-0.17 0.63,-0.11 -1.03,-0.06 -0.3,-0.08 -0.77,-0.28 -0.23,-0.1 -0.61,-0.08 -0.95,-0.09l-0.2 -0.23c-0.35,-0.3 -0.35,0 -0.41,-0.46l-1.76 -0.4c-0.56,-0.39 -0.72,-0.4 -1.32,-0.72 -0.4,-0.21 -0.98,-0.83 -1.3,-1.25 -0.85,-1.06 -1.68,-2.43 -2.19,-3.75 -0.5,-1.3 -0.67,-1.94 -0.66,-3.65 0,-3.74 0.24,-2.58 0.33,-3.58 0.07,-0.88 0.53,-2.35 1.3,-2.89l2.01 -1.12c0,-0.01 0.36,-0.56 0.41,-0.64 0.11,-0.17 0.24,-0.39 0.39,-0.58l0.57 -0.55c1,-0.75 0.45,-0.84 1.5,-0.89 -0.06,0.42 -0.02,0.44 -0.22,0.74 -0.07,0.11 -0.82,0.61 -1.56,1.57l-0.8 1.12c-0.32,0.49 -1.07,3.11 -1.31,3.86 -0.41,1.33 -0.24,4.69 0.16,5.76l0.53 0.89c0.55,1.1 1.39,2.49 2.45,3.2l0.14 0.09c0.27,0.17 0.01,0.03 0.25,0.16l0 -0.27c-0.06,-0.29 -0.98,-0.95 -1.74,-2.12 -4.56,-6.98 0.82,-16.43 9.6,-14.8 1.1,0.2 2.17,0.54 2.93,1.07 1.15,0.8 0.7,1.72 2.24,1.02 2.91,-1.31 0.96,-2.1 -0.06,-2.84 -2.28,-1.66 -4.77,-2.47 -7.91,-2.23 -6.77,0.5 -11.75,5.06 -11.75,12.42 0,2.43 0.75,4.62 1.68,6.46 0.9,1.81 2.23,3.17 3.93,4.15 4.8,2.75 13.65,2.93 16.88,-3.85 0.63,-1.32 1.48,-5.14 1.12,-6.8 -0.6,-0.27 -3.72,-0.03 -4.62,-0.02 -1.09,0 -3.82,-0.19 -4.67,-0.02 -0.17,0.71 -0.11,2.02 0.07,2.63 1.06,0.26 3.82,-0.25 6.19,0.33 0.15,2.4 -1.56,4.79 -2.83,5.65 -2.5,1.69 -5.88,0.84 -7.18,1.04z"/>
   <path class="fil4" d="M569.4 28.87c0.03,-0.03 0.06,-0.1 0.07,-0.08l0.36 -0.77c0.77,-2.37 1.1,-4.93 0.32,-7.37 0,-0.01 -0.1,-0.24 -0.11,-0.27 -0.1,-0.18 -0.06,-0.12 -0.17,-0.23 -0.24,0.33 0.03,0.38 -0.35,-0.07l-2.14 -3.31 -0.47 0.15c-0.03,0 -0.07,0 -0.1,-0.01 -0.23,-0.03 -0.39,-0.15 -0.51,-0.26 -0.3,0.53 -0.25,0.24 -0.73,0.24 0.35,0.2 0.19,0.57 0.19,0.59 0,0.03 0.02,0.16 0.05,0.34 0.15,0.91 0.18,1 0.87,2.21 0.7,1.21 1.05,5.55 0.48,6.74l-0.89 1.63c-0.21,0.43 -0.23,0.33 -0.46,0.67 -0.3,-0.27 -0.26,-0.14 -0.18,-0.46 -0.8,0.55 -2.66,5.08 -8.7,4.75 -0.17,0.29 -0.32,0.26 -0.75,0.3l-1.13 -0.03c-0.41,-0.09 -0.45,-0.27 -0.89,-0.48 -1.85,-0.87 -0.79,-0.3 -2.26,-1.5 -0.54,-0.43 -1.4,-1.37 -1.77,-1.97l-0.93 -1.38c-0.18,-0.34 -0.14,-0.31 -0.65,-0.42 -0.04,-0.33 -0.14,-0.71 -0.26,-0.99 -0.22,-0.52 -0.22,-0.27 -0.33,-0.91 -0.43,-2.3 0.21,-5.3 1.51,-7.22 0.2,-0.31 0.43,-0.44 0.54,-0.72l0.85 -1.48c0.18,-0.49 0.6,-1 0.99,-1.35l0.96 -0.84c0.01,-0.02 0.04,-0.04 0.06,-0.06 0.01,-0.01 0.04,-0.04 0.05,-0.06 0.13,-0.15 0.11,0.19 0.11,-0.26 -0.33,0 -0.16,0 -0.35,0.07 -0.02,0 -0.06,0.02 -0.08,0.03 -0.03,0.01 -0.06,0.03 -0.08,0.04 -0.37,0.16 -0.94,0.32 -1.27,0.63l-2.9 3.29c0.05,-0.61 0.14,-0.52 0.23,-0.94l-1.29 1.73c-0.11,0.18 -0.15,0.35 -0.29,0.56 -0.22,0.32 -0.21,0.22 -0.41,0.46 -0.72,0.89 -1.36,4.03 -1.11,5.19 0.08,0.38 0.06,-0.08 0.13,0.54 0.09,0.72 0.59,1.64 0.94,2.25 0.01,0.02 0.03,0.06 0.04,0.08 0.38,0.69 0.77,1.41 1.26,2 0.32,0.36 0.11,0.03 0.49,0.33 0.49,0.38 0.97,1.41 2.06,2.15 0.36,0.25 0.39,0.69 0.79,0.88 0.24,0.11 0.36,0.08 0.63,0.23 0.42,0.24 0.44,0.42 0.97,0.58 0.19,0.05 0.45,0.12 0.65,0.22 0.43,0.2 0.55,0.49 0.98,0.66l1.27 0.41c0.29,0.08 0.36,0.12 0.65,0.21 1.5,0.45 2.98,-0.14 4.41,-0.33 0.39,-0.05 0.35,0 0.68,-0.13l0.15 -0.07c0.02,-0.01 0.05,-0.03 0.07,-0.04l1.43 -0.62c0.02,-0.01 0.05,-0.04 0.07,-0.05 0.02,-0.02 0.05,-0.04 0.07,-0.05l2.21 -1.75c0.32,-0.28 0.16,-0.13 0.51,-0.35 0.51,-0.32 0.39,-0.44 0.86,-0.82 0.78,-0.63 1.9,-1.89 2.32,-2.75 0.37,0 0.05,-0.06 0.28,0.24z"/>
   <path class="fil3" d="M569.4 28.87c-0.23,-0.3 0.09,-0.24 -0.28,-0.24 -0.42,0.86 -1.54,2.12 -2.32,2.75 -0.47,0.38 -0.35,0.5 -0.86,0.82 -0.35,0.22 -0.19,0.07 -0.51,0.35l-2.21 1.75c-0.02,0.01 -0.05,0.03 -0.07,0.05 -0.02,0.01 -0.05,0.04 -0.07,0.05l-1.43 0.62c-0.02,0.01 -0.05,0.03 -0.07,0.04l-0.15 0.07c-0.33,0.13 -0.29,0.08 -0.68,0.13 -1.43,0.19 -2.91,0.78 -4.41,0.33 -0.29,-0.09 -0.36,-0.13 -0.65,-0.21l-1.27 -0.41c-0.43,-0.17 -0.55,-0.46 -0.98,-0.66 -0.2,-0.1 -0.46,-0.17 -0.65,-0.22 -0.53,-0.16 -0.55,-0.34 -0.97,-0.58 -0.27,-0.15 -0.39,-0.12 -0.63,-0.23 -0.4,-0.19 -0.43,-0.63 -0.79,-0.88 -1.09,-0.74 -1.57,-1.77 -2.06,-2.15 -0.38,-0.3 -0.17,0.03 -0.49,-0.33 -0.49,-0.59 -0.88,-1.31 -1.26,-2 -0.01,-0.02 -0.03,-0.06 -0.04,-0.08 -0.35,-0.61 -0.85,-1.53 -0.94,-2.25 -0.07,-0.62 -0.05,-0.16 -0.13,-0.54 -0.25,-1.16 0.39,-4.3 1.11,-5.19 0.2,-0.24 0.19,-0.14 0.41,-0.46 0.14,-0.21 0.18,-0.38 0.29,-0.56l1.29 -1.73c-0.09,0.42 -0.18,0.33 -0.23,0.94l2.9 -3.29c0.33,-0.31 0.9,-0.47 1.27,-0.63 0.02,-0.01 0.05,-0.03 0.08,-0.04 0.02,-0.01 0.06,-0.03 0.08,-0.03 0.19,-0.07 0.02,-0.07 0.35,-0.07 0,0.45 0.02,0.11 -0.11,0.26 -0.01,0.02 -0.04,0.05 -0.05,0.06 -0.02,0.02 -0.05,0.04 -0.06,0.06l-0.96 0.84c-0.39,0.35 -0.81,0.86 -0.99,1.35l-0.85 1.48c-0.11,0.28 -0.34,0.41 -0.54,0.72 -1.3,1.92 -1.94,4.92 -1.51,7.22 0.11,0.64 0.11,0.39 0.33,0.91 0.12,0.28 0.22,0.66 0.26,0.99 0.51,0.11 0.47,0.08 0.65,0.42l0.93 1.38c0.37,0.6 1.23,1.54 1.77,1.97 1.47,1.2 0.41,0.63 2.26,1.5 0.44,0.21 0.48,0.39 0.89,0.48l1.13 0.03c0.43,-0.04 0.58,-0.01 0.75,-0.3 -3.92,-0.26 -6.96,-3.89 -8.18,-7.24 -1.3,-3.59 1.14,-8.22 4.35,-10.49 1.77,-1.25 3.56,-1.71 6.17,-1.25 2.43,0.43 3.78,1.48 4.96,2.76 1.72,1.86 3.27,5.69 2.44,8.7 -0.14,0.51 -0.28,0.99 -0.48,1.44 -0.21,0.45 -0.52,0.91 -0.56,1.33 -0.08,0.32 -0.12,0.19 0.18,0.46 0.23,-0.34 0.25,-0.24 0.46,-0.67l0.89 -1.63c0.57,-1.19 0.22,-5.53 -0.48,-6.74 -0.69,-1.21 -0.72,-1.3 -0.87,-2.21 -0.03,-0.18 -0.05,-0.31 -0.05,-0.34 0,-0.02 0.16,-0.39 -0.19,-0.59 0.48,0 0.43,0.29 0.73,-0.24 0.12,0.11 0.28,0.23 0.51,0.26 0.03,0.01 0.07,0.01 0.1,0.01l0.47 -0.15 2.14 3.31c0.38,0.45 0.11,0.4 0.35,0.07 0.01,-0.91 -1.4,-2.99 -1.87,-3.64 -2.47,-3.4 -7.05,-5.71 -11.85,-4.96 -2.64,0.4 -4.93,1.24 -6.88,2.91 -2.14,1.82 -3.84,5.02 -4.16,8.61 -0.31,3.56 1.12,6.31 2.69,8.46 1.43,1.95 3.88,3.45 6.94,4.39 3.14,0.95 6.77,0.12 9.15,-1.29 1.72,-1.02 5.48,-4.32 5.51,-5.76z"/>
   <path class="fil3" d="M495.95 27.41c-0.16,-0.58 -0.13,-1.38 -0.08,-1.97l-0.25 1.67c-0.01,-0.03 -0.06,0.02 -0.09,0.03 -0.04,0.77 -0.19,1.48 -0.3,2.32l-0.34 2.19c-0.09,-0.24 -0.01,-0.27 -0.05,-0.53 -0.09,-0.49 -0.03,-0.23 -0.18,-0.48 -0.67,-1.16 -0.06,-1.14 -0.17,-1.74 -0.2,-1.24 -0.45,-2.37 -0.49,-3.69 -0.02,-0.84 -0.14,-1.58 -0.15,-2.53 0,-1.68 0.09,-3.65 -0.05,-5.28 -0.09,-0.97 -0.27,-4.13 0.21,-4.74 0.95,-0.17 3.1,-0.04 4.13,0 1.25,0.06 2.22,0.18 3.39,0.48 0.21,0.91 -0.08,0.53 0.15,1 -0.78,-0.01 -2.03,0 -2.78,0.08 -0.46,0.05 -2.22,0.39 -2.25,0.38 0.34,0 0.68,-0.01 1.01,-0.02 0.98,0 0.83,0.1 0.97,0.27 1.42,0.05 2.98,0.06 4.05,0.76 0.87,0.56 1.2,2.43 0.88,3.81 -0.86,3.64 -4.17,2.24 -7.04,2.8l0.05 0.42c0.48,0.08 1.79,0.25 2.09,0.39 0.75,0.37 0.68,0.04 1.93,0.25 -0.05,0.24 -0.04,0.22 -0.42,0.43l-0.32 0.14c-1.08,0.31 -2.9,0.03 -3.43,0.59 1.2,0.54 1.68,-0.19 2.85,0.15 0.83,0.29 2.97,-0.08 3.82,-0.35 1.07,-0.33 1.84,-1.1 2.43,-1.79 2.07,-2.4 2.51,-9.69 -4.01,-10.35 -2.76,-0.28 -5.74,-0.24 -8.53,-0.28l0.25 23.9c0.08,0.02 0.13,0 0.15,0.04 0.1,0.23 2.42,0.07 2.62,0.06 0.1,-0.9 0.13,-7.85 -0.05,-8.41z"/>
   <path class="fil3" d="M381.79 35.66c-0.16,-1.15 0.2,-4.42 -0.13,-5.13l-0.34 2.2c-0.04,0.24 -0.03,0.29 -0.11,0.5 -0.22,0.59 -0.27,0.17 -0.51,0.69 -0.01,0.02 -0.08,0.24 -0.09,0.28l-0.06 0.18c-0.01,-0.46 0.05,-0.76 -0.09,-1.13l-0.12 -0.23c-0.16,-0.36 -0.07,-0.21 -0.16,-0.57 -0.32,-1.31 -0.36,0.45 -0.49,-2.9 -0.07,-1.8 -0.45,-3.34 -0.47,-5.3l0.06 -5.14c0.33,-1.47 0.17,-1.77 0.18,-3.43 0.01,-1.85 0.17,-1.58 0.24,-2.65 0.53,-0.04 0.38,-0.11 0.78,-0.17l2.24 0.15c0.02,0.02 0.04,0.05 0.05,0.07l0.18 0.2c0.18,0.2 0.02,-0.02 0.18,0.19 0.38,0.49 0.11,1.08 -0.54,1.13 1.02,0 0.87,-0.02 1.09,0.24 2.37,0.09 4.29,0.2 4.92,2.32 0.31,1.02 0.1,2.15 -0.27,3.06 -0.46,1.13 -0.84,1.16 -1.75,1.75l-0.16 0.39 0.92 0.03c0.02,0.68 0.16,1.93 -0.68,2.19l0.25 0.09c1.49,-0.01 3.74,-1.57 4.53,-3.16 0.97,-1.95 0.8,-4.73 -0.16,-6.55 -0.96,-1.82 -2.21,-2.63 -4.97,-2.88 -2.55,-0.23 -5.09,-0.18 -7.66,-0.32 -0.07,2.24 0.01,23.39 0.23,24.04 0.33,0.07 2.61,0.18 2.91,-0.14z"/>
   <path class="fil5" d="M381.79 35.66c0.33,-0.34 0.17,-2.12 0.17,-2.61 0,-2.12 -0.22,-7 0.2,-8.38l0.4 0.03 -0.02 -0.18c0.39,0.49 0.25,-0.08 1.11,0.49 1.02,0.68 0.6,0.1 1.14,0.66 0.5,0.51 0.3,0.45 0.88,0.56 0.16,-0.36 0.03,-0.5 0.24,-0.73 0.31,-0.37 0.38,0.18 0.43,-0.38 0,0.69 -0.05,0.04 0.22,0.33l0 -0.5 0.35 -0.28 -0.25 -0.09c0.84,-0.26 0.7,-1.51 0.68,-2.19l-0.92 -0.03 0.16 -0.39c-1.1,0.17 -2.92,0.51 -3.98,0.1 -0.52,-0.4 -0.37,-5.16 -0.33,-6.26 0.05,-1.28 0.18,-0.98 1.41,-0.97 -0.22,-0.26 -0.07,-0.24 -1.09,-0.24 0.65,-0.05 0.92,-0.64 0.54,-1.13 -0.16,-0.21 0,0.01 -0.18,-0.19l-0.18 -0.2c-0.01,-0.02 -0.03,-0.05 -0.05,-0.07l-2.24 -0.15c-0.4,0.06 -0.25,0.13 -0.78,0.17 -0.07,1.07 -0.23,0.8 -0.24,2.65 -0.01,1.66 0.15,1.96 -0.18,3.43l-0.06 5.14c0.02,1.96 0.4,3.5 0.47,5.3 0.13,3.35 0.17,1.59 0.49,2.9 0.09,0.36 0,0.21 0.16,0.57l0.12 0.23c0.14,0.37 0.08,0.67 0.09,1.13l0.06 -0.18c0.01,-0.04 0.08,-0.26 0.09,-0.28 0.24,-0.52 0.29,-0.1 0.51,-0.69 0.08,-0.21 0.07,-0.26 0.11,-0.5l0.34 -2.2c0.33,0.71 -0.03,3.98 0.13,5.13z"/>
   <path class="fil3" d="M326.05 33.45c-0.14,-0.1 0.03,-0.02 -0.26,-0.14 -0.59,-0.24 -0.96,-0.22 -1.82,-0.74 -0.69,-0.41 -1.19,-0.87 -1.8,-1.21l0 0.27c-0.24,-0.13 0.02,0.01 -0.25,-0.16l-0.14 -0.09c-1.06,-0.71 -1.9,-2.1 -2.45,-3.2l-0.53 -0.89c-0.4,-1.07 -0.57,-4.43 -0.16,-5.76 0.24,-0.75 0.99,-3.37 1.31,-3.86l0.8 -1.12c0.74,-0.96 1.49,-1.46 1.56,-1.57 0.2,-0.3 0.16,-0.32 0.22,-0.74 -1.05,0.05 -0.5,0.14 -1.5,0.89l-0.57 0.55c-0.15,0.19 -0.28,0.41 -0.39,0.58 -0.05,0.08 -0.41,0.63 -0.41,0.64l-2.01 1.12c-0.77,0.54 -1.23,2.01 -1.3,2.89 -0.09,1 -0.33,-0.16 -0.33,3.58 -0.01,1.71 0.16,2.35 0.66,3.65 0.51,1.32 1.34,2.69 2.19,3.75 0.32,0.42 0.9,1.04 1.3,1.25 0.6,0.32 0.76,0.33 1.32,0.72l1.76 0.4c0.06,0.46 0.06,0.16 0.41,0.46l0.2 0.23c0.34,0.01 0.72,-0.01 0.95,0.09 0.47,0.2 -0.26,0.22 0.77,0.28 -0.36,-0.06 -0.47,0.01 -0.63,0.11 1.19,0.12 2.86,0.36 4.2,0.12 0.52,-0.09 0.16,-0.14 0.86,-0.2 0.39,-0.03 0.67,-0.03 0.98,-0.11 0.46,-0.11 0.2,-0.05 0.44,-0.16 0.87,-0.42 0.55,-0.05 0.66,-0.72 -0.26,-0.01 -0.77,0.03 -0.98,-0.01 -0.63,-0.12 -0.1,-0.15 -0.65,-0.31 -0.54,-0.17 -1.39,-0.07 -1.8,0.06 -0.42,0.12 -1.82,-0.11 -2.33,-0.29 -0.26,-0.1 -0.19,-0.19 -0.66,-0.27l0.38 -0.09z"/>
   <path class="fil4" d="M495.95 27.41c0.18,-0.37 0.13,-1.86 0.23,-2.72 1.63,0.04 2.39,0.1 3,-0.07 0.02,0 0.06,-0.02 0.09,-0.03 -1.17,-0.34 -1.65,0.39 -2.85,-0.15 0.53,-0.56 2.35,-0.28 3.43,-0.59l0.32 -0.14c0.38,-0.21 0.37,-0.19 0.42,-0.43 -1.25,-0.21 -1.18,0.12 -1.93,-0.25 -0.3,-0.14 -1.61,-0.31 -2.09,-0.39l-0.05 -0.42c-0.22,-0.6 -0.29,-6.43 -0.06,-7.24 0.53,-0.29 1.51,-0.14 2.17,-0.13 -0.14,-0.17 0.01,-0.27 -0.97,-0.27 -0.33,0.01 -0.67,0.02 -1.01,0.02 0.03,0.01 1.79,-0.33 2.25,-0.38 0.75,-0.08 2,-0.09 2.78,-0.08 -0.23,-0.47 0.06,-0.09 -0.15,-1 -1.17,-0.3 -2.14,-0.42 -3.39,-0.48 -1.03,-0.04 -3.18,-0.17 -4.13,0 -0.48,0.61 -0.3,3.77 -0.21,4.74 0.14,1.63 0.05,3.6 0.05,5.28 0.01,0.95 0.13,1.69 0.15,2.53 0.04,1.32 0.29,2.45 0.49,3.69 0.11,0.6 -0.5,0.58 0.17,1.74 0.15,0.25 0.09,-0.01 0.18,0.48 0.04,0.26 -0.04,0.29 0.05,0.53l0.34 -2.19c0.11,-0.84 0.26,-1.55 0.3,-2.32 0.03,-0.01 0.08,-0.06 0.09,-0.03l0.25 -1.67c-0.05,0.59 -0.08,1.39 0.08,1.97z"/>
   <path class="fil2" d="M382.56 24.7c0.17,0.39 0.97,1 1.31,1.41 0.98,1.13 2.68,3.7 3.68,5.01 2.25,2.93 3.35,5.3 6.64,4.83 0.07,-1.14 -1.12,-2.17 -1.65,-2.83 -0.72,-0.89 -1.24,-1.74 -1.94,-2.64 -1.4,-1.82 -2.65,-3.32 -4.04,-5.03 -0.27,-0.29 -0.22,0.36 -0.22,-0.33 -0.05,0.56 -0.12,0.01 -0.43,0.38 -0.21,0.23 -0.08,0.37 -0.24,0.73 -0.58,-0.11 -0.38,-0.05 -0.88,-0.56 -0.54,-0.56 -0.12,0.02 -1.14,-0.66 -0.86,-0.57 -0.72,0 -1.11,-0.49l0.02 0.18z"/>
   <path class="fil6" d="M0 62.11l0 7.96c0.73,0 0.68,0.13 1.24,-0.67 0.7,-1.01 1.38,-3.87 1.26,-4.81 -0.4,0.28 -0.13,0.24 -0.81,0.23 -0.18,-0.25 -0.18,-0.55 -0.26,-0.91 -0.49,-2.25 -0.02,-4.26 -0.01,-6.61 -0.51,0.78 -0.04,3.21 -0.83,4.81l-0.59 0z"/>
  </g>
 </g>
</svg>
